<svg id="Capa_1" data-name="Capa 1" xmlns="http://www.w3.org/2000/svg" xmlns:xlink="http://www.w3.org/1999/xlink" viewBox="0 0 500 500"><defs><style>.cls-1,.cls-3{fill:none;}.cls-2{fill:#f57354;}.cls-3{stroke:#000;stroke-width:4px;}.cls-4{fill:#23b3c3;}.cls-5{fill:#e93931;}.cls-6{clip-path:url(#clip-path);}.cls-7{fill:#0f6f7c;}.cls-8{clip-path:url(#clip-path-2);}.cls-9{clip-path:url(#clip-path-3);}.cls-10{clip-path:url(#clip-path-4);}</style><clipPath id="clip-path"><path class="cls-1" d="M269.93,300.56h-48v32h0v32h48c16.26,0,29.56-13.5,29.56-30v-4C299.49,314.06,286.19,300.56,269.93,300.56Z"/></clipPath><clipPath id="clip-path-2"><path class="cls-1" d="M44.37,361.87,21.72,350.44a27.15,27.15,0,0,1-12-36.36l.57-1.12a30.11,30.11,0,0,1,40.33-13.28L70.3,309.6"/></clipPath><clipPath id="clip-path-3"><path class="cls-1" d="M371.17,214.78,419,111.65a4.18,4.18,0,0,1,7.59,0l47.58,103.13a4.19,4.19,0,0,1-3.8,5.94H375A4.18,4.18,0,0,1,371.17,214.78Z"/></clipPath><clipPath id="clip-path-4"><path class="cls-1" d="M301.72,127.07h-48v32h0v32h48c16.26,0,29.56-13.5,29.56-30v-4C331.28,140.57,318,127.07,301.72,127.07Z"/></clipPath></defs><path class="cls-2" d="M395.75,381.87l42.38-91.4a3.71,3.71,0,0,1,6.73,0L487,381.87a3.7,3.7,0,0,1-3.36,5.26H399.12A3.71,3.71,0,0,1,395.75,381.87Z"/><path id="A" class="cls-3" d="M400.57,396l44.94-97.25a2.6,2.6,0,0,1,2.46-1.58h1.44a2.46,2.46,0,0,1,2.46,1.58L496.37,396a2.55,2.55,0,0,1-2.46,3.75H481.34c-2.16,0-3.18-.86-4.19-2.89l-7.08-15.6h-43.2l-7.08,15.6a4.35,4.35,0,0,1-4.19,2.89H403A2.55,2.55,0,0,1,400.57,396ZM463,365.24l-14.45-31.79h-.43L434,365.24Z"/><path class="cls-4" d="M365.53,300.56h-48v32h0v32h48c16.26,0,29.56-13.5,29.56-30v-4C395.09,314.06,381.79,300.56,365.53,300.56Z"/><path id="R" class="cls-3" d="M317.49,301.38a2.74,2.74,0,0,1,2.74-2.75h41.33a31.3,31.3,0,0,1,31.5,31.07c0,13.29-8.82,24.13-21.39,29.18l19.8,36.7a2.73,2.73,0,0,1-2.46,4.19H373.84a2.47,2.47,0,0,1-2.31-1.3l-19.22-38.29h-16V397a2.84,2.84,0,0,1-2.74,2.74h-13.3a2.74,2.74,0,0,1-2.74-2.74ZM360,344.72c7.66,0,14.3-6.64,14.3-14.74,0-7.65-6.64-14-14.3-14H336.42v28.75Z"/><path class="cls-5" d="M269.93,300.56h-48v32h0v32h48c16.26,0,29.56-13.5,29.56-30v-4C299.49,314.06,286.19,300.56,269.93,300.56Z"/><g class="cls-6"><circle cx="234.8" cy="266.33" r="1.89"/><circle cx="224.44" cy="266.33" r="1.89"/><circle cx="234.8" cy="279.82" r="1.89"/><circle cx="224.44" cy="279.82" r="1.89"/><circle cx="234.8" cy="293.3" r="1.89"/><circle cx="224.44" cy="293.3" r="1.89"/><circle cx="234.8" cy="306.79" r="1.89"/><circle cx="224.44" cy="306.79" r="1.89"/><circle cx="234.8" cy="320.25" r="1.89"/><circle cx="224.44" cy="320.25" r="1.89"/><circle cx="234.8" cy="333.73" r="1.89"/><circle cx="224.44" cy="333.73" r="1.89"/><circle cx="234.8" cy="347.22" r="1.89"/><circle cx="224.44" cy="347.22" r="1.89"/><circle cx="234.8" cy="360.7" r="1.89"/><circle cx="224.44" cy="360.7" r="1.89"/><circle cx="255.6" cy="266.35" r="1.89"/><circle cx="245.24" cy="266.35" r="1.89"/><circle cx="255.6" cy="279.84" r="1.89"/><circle cx="245.24" cy="279.84" r="1.89"/><circle cx="255.6" cy="293.32" r="1.89"/><circle cx="245.24" cy="293.32" r="1.89"/><circle cx="255.6" cy="306.81" r="1.89"/><circle cx="245.24" cy="306.81" r="1.89"/><circle cx="255.6" cy="320.27" r="1.89"/><circle cx="245.24" cy="320.27" r="1.89"/><circle cx="255.6" cy="333.75" r="1.89"/><circle cx="245.24" cy="333.75" r="1.89"/><circle cx="255.6" cy="347.24" r="1.89"/><circle cx="245.24" cy="347.24" r="1.89"/><circle cx="255.6" cy="360.73" r="1.89"/><circle cx="245.24" cy="360.73" r="1.89"/><circle cx="276.13" cy="266.82" r="1.89"/><circle cx="265.78" cy="266.82" r="1.89"/><circle cx="276.13" cy="279.79" r="1.89"/><circle cx="265.78" cy="279.79" r="1.89"/><circle cx="276.13" cy="293.28" r="1.89"/><circle cx="265.78" cy="293.28" r="1.89"/><circle cx="276.13" cy="306.76" r="1.89"/><circle cx="265.78" cy="306.76" r="1.89"/><circle cx="276.13" cy="320.22" r="1.89"/><circle cx="265.78" cy="320.22" r="1.89"/><circle cx="276.13" cy="333.71" r="1.89"/><circle cx="265.78" cy="333.71" r="1.89"/><circle cx="276.13" cy="347.19" r="1.89"/><circle cx="265.78" cy="347.19" r="1.89"/><circle cx="276.13" cy="360.68" r="1.89"/><circle cx="265.78" cy="360.68" r="1.89"/><circle cx="296.93" cy="266.84" r="1.89"/><circle cx="286.58" cy="266.84" r="1.89"/><circle cx="296.93" cy="279.81" r="1.89"/><circle cx="286.58" cy="279.81" r="1.89"/><circle cx="296.93" cy="293.3" r="1.89"/><circle cx="286.58" cy="293.3" r="1.89"/><circle cx="296.93" cy="306.79" r="1.89"/><circle cx="286.58" cy="306.79" r="1.89"/><circle cx="296.93" cy="320.24" r="1.89"/><circle cx="286.58" cy="320.24" r="1.89"/><circle cx="296.93" cy="333.73" r="1.89"/><circle cx="286.58" cy="333.73" r="1.89"/><circle cx="296.93" cy="347.21" r="1.89"/><circle cx="286.58" cy="347.21" r="1.89"/><circle cx="296.93" cy="360.7" r="1.89"/><circle cx="286.58" cy="360.7" r="1.89"/></g><path id="R-2" data-name="R" class="cls-3" d="M221.25,301.38a2.75,2.75,0,0,1,2.75-2.75h41.32a31.3,31.3,0,0,1,31.5,31.07c0,13.29-8.81,24.13-21.38,29.18l19.79,36.7a2.73,2.73,0,0,1-2.45,4.19H277.61a2.49,2.49,0,0,1-2.32-1.3l-19.21-38.29H240V397a2.84,2.84,0,0,1-2.75,2.74H224a2.75,2.75,0,0,1-2.75-2.74Zm42.48,43.34c7.66,0,14.31-6.64,14.31-14.74,0-7.65-6.65-14-14.31-14H240.18v28.75Z"/><path id="I" class="cls-2" d="M137.76,301.57a3.3,3.3,0,0,1,3.39-2.94h16.56a3.29,3.29,0,0,1,3.38,2.94V404.06a3.29,3.29,0,0,1-3.38,2.94H141.15a3.3,3.3,0,0,1-3.39-2.94Z"/><path id="I-2" data-name="I" class="cls-4" d="M138.27,321.37c-1,0-2-1.6-2-3.38V301.43c0-1.79.94-3.39,2-3.39h69.2c1,0,2,1.6,2,3.39V318c0,1.78-.94,3.38-2,3.38Z"/><path id="E" class="cls-3" d="M136.29,301.38a2.75,2.75,0,0,1,2.74-2.75h58.81a2.75,2.75,0,0,1,2.75,2.75v11.84a2.75,2.75,0,0,1-2.75,2.75H155.07v23.7h35.69a2.84,2.84,0,0,1,2.75,2.74v12a2.75,2.75,0,0,1-2.75,2.75H155.07v25.29h42.77a2.75,2.75,0,0,1,2.75,2.74V397a2.75,2.75,0,0,1-2.75,2.74H139a2.74,2.74,0,0,1-2.74-2.74Z"/><path id="I-3" data-name="I" class="cls-7" d="M91.06,301.57a3.3,3.3,0,0,1,3.39-2.94H111a3.29,3.29,0,0,1,3.38,2.94V404.06A3.29,3.29,0,0,1,111,407H94.45a3.3,3.3,0,0,1-3.39-2.94Z"/><path id="I-4" data-name="I" class="cls-3" d="M91.06,301.38a2.84,2.84,0,0,1,2.75-2.75h13.44a2.84,2.84,0,0,1,2.74,2.75V397a2.84,2.84,0,0,1-2.74,2.74H93.81A2.84,2.84,0,0,1,91.06,397Z"/><path class="cls-2" d="M44.37,361.87,21.72,350.44a27.15,27.15,0,0,1-12-36.36l.57-1.12a30.11,30.11,0,0,1,40.33-13.28L70.3,309.6"/><path class="cls-5" d="M31,399.56l11.57,4.07c8.42,4.12,23.45-.5,30-13.87l.55-1.13c7.26-14.83,5.55-30.71-3.79-35.28l-12.45-6.09"/><g class="cls-8"><path d="M1.47,288h2a.18.18,0,0,1,.18.18.18.18,0,0,1-.17.17h-2a.17.17,0,0,1,0-.34Z"/><path d="M5.48,288h2a.17.17,0,0,1,.18.17.18.18,0,0,1-.18.18h-2a.18.18,0,0,1-.18-.17A.18.18,0,0,1,5.48,288Z"/><path d="M9.48,288h2a.18.18,0,1,1,0,.36h-2a.18.18,0,0,1,0-.36Z"/><path d="M13.48,288h2a.19.19,0,0,1,.19.18.18.18,0,0,1-.19.19h-2a.19.19,0,1,1,0-.37Z"/><path d="M17.48,288h2a.19.19,0,1,1,0,.38h-2a.19.19,0,0,1-.19-.19A.2.2,0,0,1,17.48,288Z"/><path d="M21.48,288h2a.2.2,0,0,1,.2.2.19.19,0,0,1-.19.19h-2a.19.19,0,0,1-.19-.19A.2.2,0,0,1,21.48,288Z"/><path d="M25.49,288h2a.2.2,0,1,1,0,.4h-2a.2.2,0,1,1,0-.4Z"/><path d="M29.49,288h2a.21.21,0,1,1,0,.41h-2a.2.2,0,1,1,0-.4Z"/><path d="M33.49,288h2a.21.21,0,0,1,.21.21.21.21,0,0,1-.21.22h-2a.21.21,0,0,1-.21-.21A.21.21,0,0,1,33.49,288Z"/><path d="M37.49,287.94h2a.22.22,0,1,1,0,.44h-2a.21.21,0,0,1-.21-.22A.21.21,0,0,1,37.49,287.94Z"/><path d="M41.49,287.93h2a.22.22,0,0,1,.22.22.22.22,0,0,1-.22.23h-2a.22.22,0,0,1,0-.44Z"/><path d="M45.5,287.92h2a.22.22,0,0,1,.22.22.22.22,0,0,1-.22.23h-2a.23.23,0,1,1,0-.45Z"/><path d="M49.5,287.91h2a.23.23,0,0,1,.23.23.23.23,0,0,1-.23.23h-2a.23.23,0,0,1,0-.46Z"/><path d="M53.5,287.9h2a.23.23,0,0,1,.24.23.24.24,0,0,1-.24.24h-2a.24.24,0,0,1,0-.47Z"/><path d="M57.5,287.89h2a.24.24,0,1,1,0,.48h-2a.24.24,0,0,1,0-.48Z"/><path d="M61.5,287.88h2a.25.25,0,0,1,0,.49h-2a.25.25,0,0,1,0-.49Z"/><path d="M65.51,287.88h2a.25.25,0,0,1,.25.25.25.25,0,0,1-.25.25h-2a.25.25,0,1,1,0-.49Z"/><path d="M69.51,287.87h2a.25.25,0,0,1,0,.49h-2a.25.25,0,1,1,0-.5Z"/><path d="M73.51,287.88h2a.24.24,0,0,1,.24.24.24.24,0,0,1-.24.24h-2a.24.24,0,0,1-.24-.24.24.24,0,0,1,.24-.25Z"/><path d="M77.51,287.89h2a.23.23,0,0,1,.24.23.24.24,0,0,1-.24.24h-2a.24.24,0,1,1,0-.48Z"/><path d="M81.51,287.9h2a.24.24,0,0,1,0,.47h-2a.24.24,0,0,1,0-.47Z"/><path d="M85.52,287.91h2a.23.23,0,0,1,0,.46h-2a.23.23,0,0,1,0-.46Z"/><path d="M89.52,287.92h2a.22.22,0,0,1,.22.22.22.22,0,0,1-.22.23h-2a.23.23,0,1,1,0-.45Z"/><path d="M93.52,287.93h2a.22.22,0,1,1,0,.44h-2a.22.22,0,1,1,0-.44Z"/><path d="M97.52,287.94h2a.22.22,0,1,1,0,.43h-2a.21.21,0,0,1-.21-.22.21.21,0,0,1,.21-.21Z"/><path d="M101.52,287.94h2a.2.2,0,0,1,.2.21.2.2,0,0,1-.2.2h-2a.22.22,0,0,1,0-.43Z"/><path d="M105.53,288h2a.2.2,0,1,1,0,.4h-2a.2.2,0,0,1-.21-.2.21.21,0,0,1,.21-.21Z"/><path d="M109.53,288h2a.2.2,0,0,1,.2.2.19.19,0,0,1-.2.19h-2a.2.2,0,0,1,0-.4Z"/><path d="M113.53,288h2a.19.19,0,1,1,0,.38h-2a.19.19,0,0,1-.2-.19.2.2,0,0,1,.2-.2Z"/><path d="M117.53,288h2a.19.19,0,0,1,.19.19.18.18,0,0,1-.19.19h-2a.19.19,0,0,1-.19-.19.2.2,0,0,1,.19-.19Z"/><path d="M121.53,288h2a.19.19,0,0,1,.18.19.18.18,0,0,1-.18.18h-2a.18.18,0,0,1-.18-.18.18.18,0,0,1,.18-.19Z"/><path d="M125.54,288h2a.18.18,0,0,1,0,.36h-2a.19.19,0,0,1-.19-.18.18.18,0,0,1,.19-.18Z"/><path d="M129.54,288h2a.17.17,0,0,1,.17.18.17.17,0,0,1-.17.17h-2a.18.18,0,0,1-.18-.18.18.18,0,0,1,.18-.17Z"/><path d="M133.54,288h2a.17.17,0,1,1,0,.34h-2a.17.17,0,0,1-.17-.17.16.16,0,0,1,.17-.17Z"/><path d="M137.54,288h2a.17.17,0,0,1,.17.16.17.17,0,0,1-.17.17h-2a.17.17,0,0,1-.17-.17.18.18,0,0,1,.17-.17Z"/><path d="M141.54,288h2a.16.16,0,0,1,0,.32h-2a.16.16,0,0,1-.16-.16.17.17,0,0,1,.16-.17Z"/><path d="M145.55,288h2a.15.15,0,0,1,.15.15.16.16,0,0,1-.15.16h-2a.16.16,0,1,1,0-.32Z"/><path d="M149.55,288.05h2a.15.15,0,0,1,.15.15.15.15,0,0,1-.15.15h-2a.16.16,0,0,1-.16-.15.16.16,0,0,1,.16-.16Z"/><path d="M153.55,288.06h2a.15.15,0,0,1,.15.14.15.15,0,0,1-.15.15h-2a.15.15,0,1,1,0-.3Z"/><path d="M157.55,288.07h2a.15.15,0,1,1,0,.29h-2a.15.15,0,0,1-.14-.15.14.14,0,0,1,.14-.14Z"/><path d="M161.55,288.08h2a.14.14,0,0,1,0,.28h-2a.14.14,0,1,1,0-.28Z"/><path d="M165.56,288.09h2a.13.13,0,0,1,.13.13.13.13,0,0,1-.13.14h-2a.14.14,0,0,1-.14-.14.13.13,0,0,1,.14-.13Z"/><path d="M169.56,288.1h2a.13.13,0,0,1,0,.26h-2a.13.13,0,0,1-.13-.13.13.13,0,0,1,.13-.13Z"/><path d="M173.56,288.11h2a.12.12,0,0,1,.12.12.12.12,0,0,1-.12.13h-2a.13.13,0,0,1-.13-.13.12.12,0,0,1,.13-.12Z"/><path d="M177.56,288.11h2a.12.12,0,0,1,.12.12.12.12,0,0,1-.12.12h-2a.13.13,0,0,1-.12-.13.13.13,0,0,1,.12-.12Z"/><path d="M181.56,288.12h2a.11.11,0,0,1,0,.22h-2a.11.11,0,0,1-.11-.11.12.12,0,0,1,.11-.12Z"/><path d="M185.57,288.13h2a.11.11,0,0,1,.11.11.1.1,0,0,1-.11.1h-2a.12.12,0,0,1-.12-.11.11.11,0,0,1,.12-.11Z"/><path d="M189.57,288.14h2a.1.1,0,0,1,0,.2h-2a.1.1,0,0,1-.11-.1.11.11,0,0,1,.11-.11Z"/><path d="M193.57,288.15h2a.1.1,0,0,1,.1.1.09.09,0,0,1-.1.1h-2a.09.09,0,0,1-.1-.1.1.1,0,0,1,.1-.1Z"/><path d="M197.57,288.16h2a.1.1,0,0,1,.1.1.09.09,0,0,1-.1.09h-2a.09.09,0,0,1-.09-.09.09.09,0,0,1,.09-.1Z"/><path d="M201.57,288.17h2a.09.09,0,0,1,0,.18h-2a.09.09,0,0,1,0-.18Z"/><path d="M205.58,288.18h2a.09.09,0,0,1,.08.09.09.09,0,0,1-.08.08h-2a.09.09,0,0,1-.09-.09.09.09,0,0,1,.09-.08Z"/><path d="M209.58,288.19h2a.08.08,0,0,1,0,.16h-2a.08.08,0,0,1-.08-.08.07.07,0,0,1,.08-.08Z"/><path d="M213.58,288.19h2a.08.08,0,0,1,.08.07.08.08,0,0,1-.08.08h-2a.08.08,0,0,1-.08-.08.09.09,0,0,1,.08-.08Z"/><path d="M217.58,288.2h2a.07.07,0,0,1,0,.14h-2a.07.07,0,0,1-.07-.07.08.08,0,0,1,.07-.08Z"/><path d="M221.58,288.21h2a.06.06,0,0,1,.06.06.07.07,0,0,1-.06.07h-2a.07.07,0,0,1,0-.14Z"/><path d="M225.59,288.22h2a.06.06,0,0,1,.06.06.06.06,0,0,1-.06.06h-2a.07.07,0,0,1-.07-.06.07.07,0,0,1,.07-.07Z"/><path d="M229.59,288.23h2a.06.06,0,0,1,0,.12h-2a.06.06,0,0,1,0-.12Z"/><path d="M233.59,288.24h2a.06.06,0,0,1,0,.06.05.05,0,0,1,0,.05h-2a.06.06,0,0,1-.05-.06,0,0,0,0,1,.05-.05Z"/><path d="M237.59,288.25h2a.05.05,0,0,1,0,.1h-2a0,0,0,0,1,0-.1Z"/><path d="M241.59,288.26h2a0,0,0,0,1,0,0,0,0,0,0,1,0,.05h-2a0,0,0,0,1,0-.05,0,0,0,0,1,0,0Z"/><path d="M245.6,288.27h2a0,0,0,0,1,0,.08h-2a0,0,0,0,1,0,0s0,0,0,0Z"/><path d="M249.6,288.27h2a0,0,0,0,1,0,0s0,0,0,0h-2a0,0,0,1,1,0-.08Z"/><path d="M253.6,288.28h2a0,0,0,0,1,0,0,0,0,0,0,1,0,0h-2s0,0,0,0a0,0,0,0,1,0,0Z"/><path d="M257.6,288.29h1a0,0,0,0,1,0,0s0,0,0,0h-1a0,0,0,0,1,0,0s0,0,0,0Z"/><path d="M1.48,299.28h2a.16.16,0,0,1,.16.16.16.16,0,0,1-.16.17h-2a.16.16,0,0,1,0-.32Z"/><path d="M5.48,299.27h2a.17.17,0,1,1,0,.34h-2a.18.18,0,0,1-.17-.17A.17.17,0,0,1,5.48,299.27Z"/><path d="M9.48,299.26h2a.18.18,0,0,1,.18.18.18.18,0,0,1-.18.17h-2a.18.18,0,0,1-.17-.17A.17.17,0,0,1,9.48,299.26Z"/><path d="M13.48,299.25h2a.18.18,0,1,1,0,.36h-2a.18.18,0,0,1-.17-.18A.18.18,0,0,1,13.48,299.25Z"/><path d="M17.48,299.24h2a.19.19,0,0,1,.18.19.18.18,0,0,1-.18.18h-2a.18.18,0,0,1,0-.36Z"/><path d="M21.49,299.23h2a.19.19,0,1,1,0,.37h-2a.18.18,0,0,1-.19-.18A.18.18,0,0,1,21.49,299.23Z"/><path d="M25.49,299.22h2a.19.19,0,1,1,0,.38h-2a.18.18,0,0,1-.19-.19A.19.19,0,0,1,25.49,299.22Z"/><path d="M29.49,299.21h2a.2.2,0,1,1,0,.39h-2a.19.19,0,0,1-.19-.19A.19.19,0,0,1,29.49,299.21Z"/><path d="M33.49,299.2h2a.2.2,0,1,1,0,.4h-2a.2.2,0,0,1,0-.4Z"/><path d="M37.49,299.19h2a.2.2,0,0,1,.2.21.2.2,0,0,1-.2.2h-2a.2.2,0,0,1-.2-.2A.21.21,0,0,1,37.49,299.19Z"/><path d="M41.5,299.19h2a.22.22,0,0,1,.21.21.21.21,0,0,1-.21.21h-2a.21.21,0,0,1-.21-.21A.2.2,0,0,1,41.5,299.19Z"/><path d="M45.5,299.18h2a.22.22,0,0,1,.22.22.21.21,0,0,1-.22.21h-2a.21.21,0,1,1,0-.42Z"/><path d="M49.5,299.17h2a.23.23,0,0,1,0,.45h-2a.21.21,0,0,1-.22-.21A.22.22,0,0,1,49.5,299.17Z"/><path d="M53.5,299.16h2a.23.23,0,0,1,.23.23.23.23,0,0,1-.22.23h-2a.22.22,0,0,1-.22-.23A.22.22,0,0,1,53.5,299.16Z"/><path d="M57.51,299.15h2a.23.23,0,0,1,.23.23.24.24,0,0,1-.23.23h-2a.23.23,0,0,1-.23-.23A.23.23,0,0,1,57.51,299.15Z"/><path d="M61.51,299.14h2a.23.23,0,0,1,.23.23.23.23,0,0,1-.23.24h-2a.24.24,0,0,1-.24-.24A.23.23,0,0,1,61.51,299.14Z"/><path d="M65.51,299.13h2a.24.24,0,0,1,.24.24.24.24,0,0,1-.24.24h-2a.24.24,0,1,1,0-.48Z"/><path d="M69.51,299.12h2a.25.25,0,1,1,0,.49h-2a.25.25,0,0,1,0-.49Z"/><path d="M73.51,299.11h2a.25.25,0,0,1,0,.5h-2a.25.25,0,0,1,0-.5Z"/><path d="M77.52,299.11h2a.25.25,0,0,1,0,.49h-2a.25.25,0,0,1,0-.5Z"/><path d="M81.52,299.12h2a.24.24,0,0,1,.24.24.24.24,0,0,1-.24.24h-2a.25.25,0,1,1,0-.49Z"/><path d="M85.52,299.13h2a.24.24,0,0,1,0,.48h-2a.24.24,0,1,1,0-.48Z"/><path d="M89.52,299.14h2a.24.24,0,0,1,0,.47h-2a.23.23,0,0,1-.23-.24.23.23,0,0,1,.23-.23Z"/><path d="M93.52,299.15h2a.23.23,0,0,1,.23.23.23.23,0,0,1-.23.23h-2a.24.24,0,0,1-.23-.23.23.23,0,0,1,.23-.23Z"/><path d="M97.53,299.16h2a.22.22,0,0,1,.22.22.22.22,0,0,1-.22.23h-2a.23.23,0,0,1-.23-.23.22.22,0,0,1,.22-.22Z"/><path d="M101.53,299.17h2a.22.22,0,0,1,.22.22.21.21,0,0,1-.22.21h-2a.22.22,0,0,1-.22-.22.21.21,0,0,1,.22-.22Z"/><path d="M105.53,299.17h2a.21.21,0,1,1,0,.42h-2a.21.21,0,0,1-.22-.21.22.22,0,0,1,.22-.22Z"/><path d="M109.53,299.18h2a.21.21,0,0,1,.21.21.2.2,0,0,1-.21.2h-2a.21.21,0,0,1-.21-.21.21.21,0,0,1,.21-.21Z"/><path d="M113.53,299.19h2a.2.2,0,1,1,0,.4h-2a.2.2,0,0,1-.2-.2.2.2,0,0,1,.2-.21Z"/><path d="M117.54,299.2h2a.18.18,0,0,1,.19.19.19.19,0,0,1-.19.2h-2a.2.2,0,0,1-.21-.2.2.2,0,0,1,.2-.2Z"/><path d="M121.54,299.21h2a.19.19,0,0,1,.19.2.18.18,0,0,1-.19.19h-2a.19.19,0,0,1-.2-.19.2.2,0,0,1,.2-.2Z"/><path d="M125.54,299.22h2a.2.2,0,0,1,.19.19.19.19,0,0,1-.19.19h-2a.18.18,0,0,1-.19-.19.19.19,0,0,1,.19-.19Z"/><path d="M129.54,299.23h2a.19.19,0,1,1,0,.37h-2a.19.19,0,1,1,0-.37Z"/><path d="M133.54,299.24h2a.18.18,0,1,1,0,.36h-2a.18.18,0,0,1,0-.36Z"/><path d="M137.55,299.25h2a.18.18,0,0,1,.17.18.18.18,0,0,1-.17.17h-2a.18.18,0,0,1-.18-.18.18.18,0,0,1,.17-.17Z"/><path d="M141.55,299.25h2a.17.17,0,1,1,0,.34h-2a.18.18,0,0,1-.18-.17.18.18,0,0,1,.18-.18Z"/><path d="M145.55,299.26h2a.17.17,0,0,1,.17.16.18.18,0,0,1-.17.17h-2a.17.17,0,0,1,0-.34Z"/><path d="M149.55,299.27h2a.16.16,0,0,1,0,.32h-2a.16.16,0,0,1-.16-.16.17.17,0,0,1,.16-.17Z"/><path d="M153.55,299.28h2a.16.16,0,0,1,.16.15.16.16,0,0,1-.16.16h-2a.16.16,0,0,1,0-.32Z"/><path d="M157.56,299.29h2a.16.16,0,0,1,.15.16.15.15,0,0,1-.15.15h-2a.16.16,0,0,1-.16-.16.15.15,0,0,1,.15-.15Z"/><path d="M161.56,299.3h2a.15.15,0,0,1,0,.3h-2a.15.15,0,0,1-.15-.15.15.15,0,0,1,.15-.15Z"/><path d="M165.56,299.31h2a.14.14,0,0,1,.14.14.15.15,0,0,1-.14.15h-2a.15.15,0,0,1-.15-.15.15.15,0,0,1,.15-.14Z"/><path d="M169.56,299.32h2a.14.14,0,0,1,.14.14.14.14,0,0,1-.14.14h-2a.14.14,0,0,1-.14-.14.14.14,0,0,1,.14-.14Z"/><path d="M173.56,299.33h2a.13.13,0,0,1,.14.13.14.14,0,0,1-.14.14h-2a.13.13,0,0,1-.13-.14.13.13,0,0,1,.13-.13Z"/><path d="M177.57,299.33h2a.12.12,0,0,1,.12.13.12.12,0,0,1-.12.12h-2a.14.14,0,1,1,0-.27Z"/><path d="M181.57,299.34h2a.12.12,0,1,1,0,.24h-2a.12.12,0,0,1-.13-.12.13.13,0,0,1,.13-.13Z"/><path d="M185.57,299.35h2a.12.12,0,0,1,.12.12.11.11,0,0,1-.12.11h-2a.12.12,0,0,1-.12-.12.12.12,0,0,1,.12-.12Z"/><path d="M189.57,299.36h2a.11.11,0,1,1,0,.22h-2a.11.11,0,0,1-.11-.11.11.11,0,0,1,.11-.12Z"/><path d="M193.57,299.37h2a.1.1,0,0,1,.11.1.11.11,0,0,1-.11.11h-2a.11.11,0,1,1,0-.22Z"/><path d="M197.58,299.38h2a.11.11,0,0,1,.1.11.1.1,0,0,1-.1.1h-2a.1.1,0,0,1-.11-.1.11.11,0,0,1,.1-.11Z"/><path d="M201.58,299.39h2a.11.11,0,0,1,.1.1.1.1,0,0,1-.1.1h-2a.1.1,0,1,1,0-.2Z"/><path d="M205.58,299.4h2a.1.1,0,0,1,.1.1.1.1,0,0,1-.1.09h-2a.1.1,0,0,1-.1-.1.1.1,0,0,1,.1-.09Z"/><path d="M209.58,299.41h2a.09.09,0,1,1,0,.18h-2a.09.09,0,1,1,0-.18Z"/><path d="M213.58,299.42h2a.09.09,0,0,1,.09.08.09.09,0,0,1-.09.09h-2a.09.09,0,0,1-.08-.09.07.07,0,0,1,.08-.08Z"/><path d="M217.59,299.42h2a.08.08,0,0,1,.08.08.09.09,0,0,1-.08.08h-2a.09.09,0,0,1-.09-.08.09.09,0,0,1,.09-.09Z"/><path d="M221.59,299.43h2a.07.07,0,0,1,.07.07.07.07,0,0,1-.07.08h-2a.08.08,0,0,1,0-.16Z"/><path d="M225.59,299.44h2a.07.07,0,1,1,0,.14h-2a.07.07,0,0,1-.07-.07.07.07,0,0,1,.07-.08Z"/><path d="M229.59,299.45h2a.07.07,0,0,1,.07.06.07.07,0,0,1-.07.07h-2a.07.07,0,1,1,0-.14Z"/><path d="M233.59,299.46h2a.07.07,0,0,1,.07.07.07.07,0,0,1-.07.06h-2a.07.07,0,0,1-.06-.07.06.06,0,0,1,.06-.06Z"/><path d="M237.6,299.47h2a.06.06,0,0,1,0,.12h-2a.06.06,0,0,1,0-.12Z"/><path d="M241.6,299.48h2a.05.05,0,0,1,.05,0,.06.06,0,0,1-.05.06h-2a.06.06,0,0,1-.06-.06.06.06,0,0,1,.06,0Z"/><path d="M245.6,299.49h2a0,0,0,0,1,.05.05.05.05,0,0,1-.05,0h-2a.05.05,0,0,1,0,0,0,0,0,0,1,0-.05Z"/><path d="M249.6,299.5h2a0,0,0,0,1,.05,0,0,0,0,0,1-.05,0h-2a0,0,0,0,1,0,0,0,0,0,0,1,0,0Z"/><path d="M253.6,299.5h2a0,0,0,0,1,0,0s0,0,0,0h-2a0,0,0,0,1,0,0,0,0,0,0,1,0,0Z"/><path d="M257.61,299.51h2a0,0,0,1,1,0,.06h-2s0,0,0,0a0,0,0,0,1,0,0Z"/><path d="M261.61,299.52h2a0,0,0,0,1,0,0l0,0h-2a0,0,0,0,1,0,0,0,0,0,0,1,0,0Z"/><path d="M265.61,299.53h1s0,0,0,0l0,0h-1l0,0a0,0,0,0,1,0,0Z"/><path d="M.45,310.69h2a.24.24,0,0,1,0,.48h-2a.24.24,0,0,1,0-.48Z"/><path d="M4.45,310.7h2a.24.24,0,0,1,0,.47h-2a.24.24,0,0,1-.24-.24.23.23,0,0,1,.24-.23Z"/><path d="M8.45,310.71h2a.23.23,0,0,1,.23.23.23.23,0,0,1-.23.23h-2a.23.23,0,0,1-.23-.23.23.23,0,0,1,.23-.23Z"/><path d="M12.45,310.72h2a.23.23,0,1,1,0,.45h-2a.22.22,0,0,1-.22-.23.22.22,0,0,1,.22-.22Z"/><path d="M16.45,310.73h2a.21.21,0,0,1,.21.22.21.21,0,0,1-.21.21h-2a.21.21,0,0,1-.22-.21.22.22,0,0,1,.22-.22Z"/><path d="M20.46,310.73h2a.21.21,0,0,1,0,.42h-2a.21.21,0,0,1-.22-.21.22.22,0,0,1,.22-.22Z"/><path d="M24.46,310.74h2a.21.21,0,1,1,0,.41h-2a.21.21,0,0,1-.21-.21.21.21,0,0,1,.21-.21Z"/><path d="M28.46,310.75h2a.2.2,0,0,1,0,.4h-2a.21.21,0,1,1,0-.41Z"/><path d="M32.46,310.76h2a.19.19,0,0,1,.2.19.2.2,0,0,1-.2.2h-2a.2.2,0,0,1,0-.4Z"/><path d="M36.46,310.77h2a.2.2,0,0,1,.19.2.19.19,0,0,1-.19.19h-2a.2.2,0,0,1-.19-.19.2.2,0,0,1,.19-.2Z"/><path d="M40.47,310.78h2a.2.2,0,0,1,.19.19.19.19,0,0,1-.19.19h-2a.2.2,0,0,1-.2-.19.19.19,0,0,1,.2-.19Z"/><path d="M44.47,310.79h2a.18.18,0,0,1,.18.19.18.18,0,0,1-.18.18h-2a.19.19,0,0,1-.19-.19.18.18,0,0,1,.19-.18Z"/><path d="M48.47,310.8h2a.18.18,0,1,1,0,.36h-2a.18.18,0,0,1,0-.36Z"/><path d="M52.47,310.81h2a.18.18,0,0,1,.18.17.18.18,0,0,1-.18.18h-2a.17.17,0,0,1-.17-.18.16.16,0,0,1,.17-.17Z"/><path d="M56.47,310.81h2a.17.17,0,0,1,0,.34h-2a.18.18,0,0,1-.17-.17.18.18,0,0,1,.17-.18Z"/><path d="M60.48,310.82h2a.16.16,0,0,1,.16.16.17.17,0,0,1-.16.17h-2a.17.17,0,1,1,0-.34Z"/><path d="M64.48,310.83h2a.16.16,0,0,1,0,.32h-2a.16.16,0,0,1-.16-.16.17.17,0,0,1,.16-.17Z"/><path d="M68.48,310.84h2a.16.16,0,0,1,.16.15.16.16,0,0,1-.16.16h-2a.16.16,0,0,1,0-.32Z"/><path d="M72.48,310.85h2a.16.16,0,0,1,.16.16.16.16,0,0,1-.16.15h-2a.16.16,0,0,1-.15-.16.15.15,0,0,1,.15-.15Z"/><path d="M76.48,310.86h2a.15.15,0,0,1,0,.3h-2a.15.15,0,0,1,0-.3Z"/><path d="M80.49,310.87h2a.14.14,0,0,1,.14.14.15.15,0,0,1-.14.15h-2a.15.15,0,0,1-.15-.15.15.15,0,0,1,.15-.14Z"/><path d="M84.49,310.88h2a.14.14,0,0,1,.14.14.14.14,0,0,1-.14.14h-2a.14.14,0,0,1-.14-.14.14.14,0,0,1,.14-.14Z"/><path d="M88.49,310.89h2a.13.13,0,0,1,.13.13.13.13,0,0,1-.13.14h-2a.13.13,0,0,1-.13-.14.13.13,0,0,1,.13-.13Z"/><path d="M92.49,310.89h2a.13.13,0,0,1,.13.13.12.12,0,0,1-.13.12h-2a.12.12,0,0,1-.13-.12.13.13,0,0,1,.13-.14Z"/><path d="M96.49,310.9h2a.12.12,0,1,1,0,.24h-2a.12.12,0,0,1-.12-.12.13.13,0,0,1,.12-.13Z"/><path d="M100.5,310.91h2a.12.12,0,0,1,.12.12.12.12,0,0,1-.12.11h-2a.12.12,0,0,1-.12-.12.12.12,0,0,1,.12-.12Z"/><path d="M104.5,310.92h2a.11.11,0,0,1,0,.22h-2a.11.11,0,0,1-.12-.11.12.12,0,0,1,.12-.12Z"/><path d="M108.5,310.93h2a.11.11,0,0,1,0,.22h-2a.11.11,0,0,1,0-.22Z"/><path d="M112.5,310.94h2a.11.11,0,0,1,.11.11.1.1,0,0,1-.11.1h-2a.1.1,0,0,1-.1-.1.1.1,0,0,1,.1-.11Z"/><path d="M116.5,311h2a.11.11,0,0,1,.1.1.1.1,0,0,1-.1.1h-2a.1.1,0,0,1,0-.2Z"/><path d="M120.51,311h2a.09.09,0,0,1,.09.1.09.09,0,0,1-.09.09h-2a.09.09,0,0,1-.1-.1.09.09,0,0,1,.1-.09Z"/><path d="M124.51,311h2a.09.09,0,0,1,0,.18h-2a.09.09,0,1,1,0-.18Z"/><path d="M128.51,311h2a.09.09,0,0,1,.09.08.09.09,0,0,1-.09.09h-2a.09.09,0,0,1-.09-.09.08.08,0,0,1,.09-.08Z"/><path d="M132.51,311h2a.07.07,0,0,1,.08.08.08.08,0,0,1-.08.08h-2a.09.09,0,0,1-.08-.08.09.09,0,0,1,.08-.09Z"/><path d="M136.51,311h2a.07.07,0,0,1,.07.07.08.08,0,0,1-.07.08h-2a.08.08,0,0,1,0-.16Z"/><path d="M140.52,311h2a.07.07,0,0,1,0,.14h-2a.08.08,0,0,1-.08-.07.08.08,0,0,1,.08-.08Z"/><path d="M144.52,311h2s.07,0,.07.06a.07.07,0,0,1-.07.07h-2a.07.07,0,0,1,0-.14Z"/><path d="M148.52,311h2s.06,0,.06.07a.06.06,0,0,1-.06.06h-2a.07.07,0,0,1-.06-.07.06.06,0,0,1,.06-.06Z"/><path d="M152.52,311h2a.06.06,0,0,1,0,.12h-2a.06.06,0,0,1,0-.12Z"/><path d="M156.52,311h2a.06.06,0,0,1,0,.11h-2a.06.06,0,0,1-.05-.06,0,0,0,0,1,.05,0Z"/><path d="M160.53,311.05h2a.05.05,0,0,1,.05.05.06.06,0,0,1-.05,0h-2a.05.05,0,0,1-.05,0,0,0,0,0,1,.05-.05Z"/><path d="M164.53,311.06h2a0,0,0,0,1,0,0,0,0,0,0,1,0,0h-2a0,0,0,0,1-.05,0,0,0,0,0,1,.05,0Z"/><path d="M168.53,311.06h2a0,0,0,0,1,0,0s0,0,0,0h-2a0,0,0,0,1,0,0,0,0,0,0,1,0,0Z"/><path d="M172.53,311.07h2s0,0,0,0,0,0,0,0h-2a0,0,0,0,1,0,0s0,0,0,0Z"/><path d="M176.54,311.08h2s0,0,0,0l0,0h-2s0,0,0,0l0,0Z"/><path d="M180.54,311.09h1s0,0,0,0l0,0h-1s0,0,0,0a0,0,0,0,1,0,0Z"/><path d="M.05,321.7h2a.21.21,0,0,1,0,.42h-2a.2.2,0,0,1-.2-.21A.21.21,0,0,1,.05,321.7Z"/><path d="M4.06,321.69h2a.21.21,0,0,1,.21.22.21.21,0,0,1-.21.21h-2a.21.21,0,0,1-.22-.21A.22.22,0,0,1,4.06,321.69Z"/><path d="M8.06,321.69h2a.22.22,0,1,1,0,.44h-2a.22.22,0,0,1-.22-.22A.21.21,0,0,1,8.06,321.69Z"/><path d="M12.06,321.68h2a.23.23,0,1,1,0,.45h-2a.22.22,0,0,1,0-.44Z"/><path d="M16.06,321.67h2a.23.23,0,0,1,.23.23.22.22,0,0,1-.23.23h-2a.23.23,0,1,1,0-.45Z"/><path d="M20.06,321.66h2a.23.23,0,0,1,.23.24.23.23,0,0,1-.23.23h-2a.23.23,0,1,1,0-.46Z"/><path d="M24.07,321.65h2a.24.24,0,0,1,.24.24.24.24,0,0,1-.24.24h-2a.23.23,0,0,1-.24-.23A.24.24,0,0,1,24.07,321.65Z"/><path d="M28.07,321.64h2a.25.25,0,1,1,0,.49h-2a.24.24,0,0,1-.24-.25A.24.24,0,0,1,28.07,321.64Z"/><path d="M32.07,321.63h2a.25.25,0,0,1,.25.25.25.25,0,0,1-.25.25h-2a.25.25,0,0,1-.25-.25A.25.25,0,0,1,32.07,321.63Z"/><path d="M36.07,321.63h2a.25.25,0,0,1,0,.5h-2a.25.25,0,0,1-.25-.25.25.25,0,0,1,.25-.25Z"/><path d="M40.07,321.64h2a.24.24,0,0,1,.24.24.24.24,0,0,1-.24.24h-2a.25.25,0,0,1,0-.49Z"/><path d="M44.08,321.65h2a.23.23,0,0,1,.23.24.23.23,0,0,1-.23.23h-2a.23.23,0,0,1-.24-.23.23.23,0,0,1,.24-.24Z"/><path d="M48.08,321.66h2a.23.23,0,1,1,0,.46h-2a.23.23,0,1,1,0-.46Z"/><path d="M52.08,321.67h2a.23.23,0,1,1,0,.45h-2a.23.23,0,1,1,0-.45Z"/><path d="M56.08,321.67h2a.22.22,0,1,1,0,.44h-2a.22.22,0,0,1-.22-.22.23.23,0,0,1,.22-.23Z"/><path d="M60.08,321.68h2a.21.21,0,0,1,.21.21.21.21,0,0,1-.21.22h-2a.22.22,0,0,1,0-.44Z"/><path d="M64.09,321.69h2a.21.21,0,1,1,0,.42h-2a.21.21,0,0,1-.22-.21.22.22,0,0,1,.22-.22Z"/><path d="M68.09,321.7h2a.21.21,0,1,1,0,.41h-2a.21.21,0,0,1-.21-.21.21.21,0,0,1,.21-.21Z"/><path d="M72.09,321.71h2a.22.22,0,0,1,.21.21.21.21,0,0,1-.21.2h-2a.22.22,0,0,1-.21-.2.21.21,0,0,1,.21-.21Z"/><path d="M76.09,321.72h2a.2.2,0,1,1,0,.4h-2a.2.2,0,0,1,0-.4Z"/><path d="M80.09,321.73h2a.2.2,0,0,1,.19.2.2.2,0,0,1-.19.19h-2a.2.2,0,0,1-.19-.2.2.2,0,0,1,.19-.19Z"/><path d="M84.1,321.74h2a.19.19,0,1,1,0,.38h-2a.19.19,0,0,1-.19-.19.18.18,0,0,1,.19-.19Z"/><path d="M88.1,321.75h2a.18.18,0,0,1,.18.18.18.18,0,0,1-.18.19h-2a.19.19,0,1,1,0-.37Z"/><path d="M92.1,321.75h2a.18.18,0,1,1,0,.36h-2a.18.18,0,0,1-.18-.18.19.19,0,0,1,.18-.19Z"/><path d="M96.1,321.76h2a.18.18,0,0,1,.18.17.18.18,0,0,1-.18.18h-2a.18.18,0,0,1-.17-.18.17.17,0,0,1,.17-.18Z"/><path d="M100.11,321.77h2a.17.17,0,0,1,.17.17.18.18,0,0,1-.17.17h-2a.18.18,0,0,1,0-.35Z"/><path d="M104.11,321.78h2a.16.16,0,0,1,.16.16.17.17,0,0,1-.16.17h-2a.17.17,0,1,1,0-.34Z"/><path d="M108.11,321.79h2a.17.17,0,0,1,.16.17.16.16,0,0,1-.16.16h-2A.17.17,0,0,1,108,322a.16.16,0,0,1,.16-.16Z"/><path d="M112.11,321.8h2a.16.16,0,1,1,0,.32h-2a.16.16,0,1,1,0-.32Z"/><path d="M116.11,321.81h2a.16.16,0,0,1,.16.15.15.15,0,0,1-.16.15h-2A.16.16,0,0,1,116,322a.15.15,0,0,1,.15-.15Z"/><path d="M120.12,321.82h2a.15.15,0,0,1,.14.15.14.14,0,0,1-.14.14h-2a.15.15,0,1,1,0-.29Z"/><path d="M124.12,321.83h2a.14.14,0,0,1,0,.28h-2a.14.14,0,1,1,0-.28Z"/><path d="M128.12,321.83h2a.14.14,0,0,1,.14.14.13.13,0,0,1-.14.13h-2A.14.14,0,0,1,128,322a.14.14,0,0,1,.14-.14Z"/><path d="M132.12,321.84h2a.13.13,0,0,1,0,.26h-2A.13.13,0,0,1,132,322a.13.13,0,0,1,.13-.14Z"/><path d="M136.12,321.85h2a.12.12,0,0,1,.13.12.13.13,0,0,1-.13.13h-2a.13.13,0,0,1,0-.26Z"/><path d="M140.13,321.86h2a.12.12,0,0,1,0,.24h-2A.12.12,0,0,1,140,322a.13.13,0,0,1,.12-.13Z"/><path d="M144.13,321.87h2a.13.13,0,0,1,.12.12.12.12,0,0,1-.12.12h-2a.12.12,0,0,1,0-.24Z"/><path d="M148.13,321.88h2a.11.11,0,0,1,.11.12.11.11,0,0,1-.11.11h-2A.12.12,0,0,1,148,322a.12.12,0,0,1,.12-.12Z"/><path d="M152.13,321.89h2a.11.11,0,0,1,0,.22h-2a.11.11,0,0,1,0-.22Z"/><path d="M156.13,321.9h2a.11.11,0,0,1,.11.11.11.11,0,0,1-.11.1h-2a.1.1,0,0,1-.1-.11.1.1,0,0,1,.1-.1Z"/><path d="M160.14,321.91h2a.1.1,0,0,1,.1.1.11.11,0,0,1-.1.1h-2a.11.11,0,0,1-.11-.1.1.1,0,0,1,.1-.1Z"/><path d="M164.14,321.91h2a.09.09,0,0,1,.09.09.09.09,0,0,1-.09.1h-2a.09.09,0,0,1-.1-.1.11.11,0,0,1,.1-.1Z"/><path d="M168.14,321.92h2a.09.09,0,0,1,0,.18h-2a.09.09,0,0,1-.09-.09.1.1,0,0,1,.09-.1Z"/><path d="M172.14,321.93h2a.09.09,0,0,1,.09.08.09.09,0,0,1-.09.09h-2a.09.09,0,1,1,0-.18Z"/><path d="M176.14,321.94h2a.07.07,0,0,1,.08.08.08.08,0,0,1-.08.08h-2a.09.09,0,0,1-.08-.09.09.09,0,0,1,.08-.08Z"/><path d="M180.15,322h2a.07.07,0,0,1,.07.07.08.08,0,0,1-.07.08h-2a.08.08,0,0,1-.08-.08.08.08,0,0,1,.07-.08Z"/><path d="M184.15,322h2a.08.08,0,0,1,.07.08.08.08,0,0,1-.07.07h-2a.09.09,0,0,1-.08-.08.08.08,0,0,1,.08-.07Z"/><path d="M188.15,322h2a.07.07,0,0,1,0,.14h-2a.07.07,0,0,1,0-.14Z"/><path d="M192.15,322h2a.06.06,0,0,1,.06.06s0,.07-.06.07h-2a.07.07,0,0,1-.06-.07.06.06,0,0,1,.06-.06Z"/><path d="M196.15,322h2a.06.06,0,0,1,.06.06s0,.05-.06.05h-2a.06.06,0,0,1-.06-.05.06.06,0,0,1,.06-.06Z"/><path d="M200.16,322h2a.05.05,0,0,1,0,.1h-2a.06.06,0,0,1-.06-.05s0-.05.06-.05Z"/><path d="M204.16,322h2a.05.05,0,0,1,.05.05s0,0-.05,0h-2a0,0,0,0,1,0-.05.05.05,0,0,1,0-.05Z"/><path d="M208.16,322h2a0,0,0,0,1,0,.08h-2a0,0,0,0,1,0,0,0,0,0,0,1,0-.05Z"/><path d="M212.16,322h2s0,0,0,0a0,0,0,0,1,0,0h-2a0,0,0,1,1,0-.08Z"/><path d="M216.16,322h2s0,0,0,0,0,0,0,0h-2a0,0,0,0,1,0,0s0,0,0,0Z"/><path d="M220.17,322h2s0,0,0,0,0,0,0,0h-2s0,0,0,0,0,0,0,0Z"/><path d="M224.17,322.05h1s0,0,0,0a0,0,0,0,1,0,0h-1a0,0,0,0,1,0,0s0,0,0,0Z"/><path d="M-1.06,333.63h2a.21.21,0,0,1,.21.21.2.2,0,0,1-.21.2h-2a.2.2,0,0,1-.2-.2A.21.21,0,0,1-1.06,333.63Z"/><path d="M2.94,333.63H5a.22.22,0,0,1,.21.21A.21.21,0,0,1,5,334h-2a.2.2,0,0,1-.2-.21A.2.2,0,0,1,2.94,333.63Z"/><path d="M7,333.62H9a.21.21,0,0,1,.21.22A.21.21,0,0,1,9,334H7a.21.21,0,1,1,0-.42Z"/><path d="M11,333.61h2a.22.22,0,0,1,.22.22.22.22,0,0,1-.22.23H11a.22.22,0,1,1,0-.44Z"/><path d="M15,333.6h2a.23.23,0,0,1,0,.46H15a.22.22,0,0,1-.22-.23A.22.22,0,0,1,15,333.6Z"/><path d="M19,333.59h2a.23.23,0,0,1,0,.46H19a.24.24,0,0,1-.23-.23A.23.23,0,0,1,19,333.59Z"/><path d="M23,333.58h2a.23.23,0,0,1,.23.23.23.23,0,0,1-.23.24H23a.24.24,0,0,1,0-.47Z"/><path d="M27,333.57h2a.24.24,0,0,1,.24.24.24.24,0,0,1-.24.24H27a.24.24,0,0,1,0-.48Z"/><path d="M31,333.56h2a.25.25,0,0,1,.25.24.25.25,0,0,1-.25.25H31a.24.24,0,0,1-.24-.24A.24.24,0,0,1,31,333.56Z"/><path d="M35,333.55h2a.25.25,0,0,1,0,.5H35a.25.25,0,1,1,0-.5Z"/><path d="M39,333.55h2a.25.25,0,1,1,0,.49H39a.25.25,0,0,1-.25-.25.25.25,0,0,1,.25-.25Z"/><path d="M43,333.56h2a.24.24,0,0,1,.24.24.24.24,0,0,1-.24.24H43a.25.25,0,0,1,0-.49Z"/><path d="M47,333.57h2a.24.24,0,0,1,0,.48H47a.24.24,0,0,1-.24-.24.24.24,0,0,1,.24-.24Z"/><path d="M51,333.58h2a.24.24,0,0,1,0,.47H51a.24.24,0,0,1-.24-.24.23.23,0,0,1,.24-.23Z"/><path d="M55,333.59h2a.23.23,0,0,1,.23.23.23.23,0,0,1-.23.23H55a.23.23,0,0,1-.23-.23.23.23,0,0,1,.23-.23Z"/><path d="M59,333.6h2a.23.23,0,1,1,0,.45H59a.22.22,0,0,1-.22-.23.22.22,0,0,1,.22-.22Z"/><path d="M63,333.61h2a.22.22,0,0,1,0,.44H63a.22.22,0,0,1-.22-.22.22.22,0,0,1,.22-.22Z"/><path d="M67,333.61h2a.21.21,0,1,1,0,.42H67a.21.21,0,0,1-.22-.21.22.22,0,0,1,.22-.22Z"/><path d="M71,333.62h2a.21.21,0,1,1,0,.41H71a.21.21,0,0,1-.21-.21.21.21,0,0,1,.21-.21Z"/><path d="M75,333.63h2a.2.2,0,1,1,0,.4H75a.21.21,0,1,1,0-.41Z"/><path d="M79,333.64h2a.19.19,0,0,1,.2.19.2.2,0,0,1-.2.2H79a.2.2,0,1,1,0-.4Z"/><path d="M83,333.65h2a.2.2,0,0,1,.19.2A.19.19,0,0,1,85,334H83a.19.19,0,0,1-.19-.19.2.2,0,0,1,.19-.2Z"/><path d="M87,333.66h2a.2.2,0,0,1,.19.19A.19.19,0,0,1,89,334H87a.19.19,0,0,1,0-.38Z"/><path d="M91,333.67h2a.19.19,0,0,1,.18.19A.18.18,0,0,1,93,334H91a.19.19,0,1,1,0-.37Z"/><path d="M95,333.68h2a.18.18,0,0,1,0,.36H95a.18.18,0,1,1,0-.36Z"/><path d="M99,333.69h2a.18.18,0,0,1,.18.18.18.18,0,0,1-.18.17H99a.18.18,0,0,1-.17-.18.17.17,0,0,1,.17-.17Z"/><path d="M103,333.69h2a.17.17,0,0,1,0,.34h-2a.18.18,0,0,1-.18-.17.18.18,0,0,1,.17-.18Z"/><path d="M107,333.7h2a.16.16,0,0,1,.16.16.16.16,0,0,1-.16.17h-2a.17.17,0,1,1,0-.34Z"/><path d="M111,333.71h2a.16.16,0,0,1,0,.32h-2a.16.16,0,0,1-.16-.16.17.17,0,0,1,.16-.17Z"/><path d="M115,333.72h2a.16.16,0,0,1,.16.15.16.16,0,0,1-.16.16h-2a.16.16,0,0,1,0-.32Z"/><path d="M119,333.73h2a.15.15,0,0,1,.16.15.16.16,0,0,1-.16.15h-2a.16.16,0,0,1-.15-.16.15.15,0,0,1,.15-.15Z"/><path d="M123,333.74h2a.15.15,0,0,1,0,.3h-2a.15.15,0,0,1-.15-.15.15.15,0,0,1,.14-.15Z"/><path d="M127,333.75h2a.14.14,0,0,1,.14.14.15.15,0,0,1-.14.15h-2a.15.15,0,0,1-.15-.15.15.15,0,0,1,.15-.14Z"/><path d="M131,333.76h2a.14.14,0,0,1,.14.14.14.14,0,0,1-.14.14h-2a.14.14,0,0,1-.14-.14.14.14,0,0,1,.14-.14Z"/><path d="M135,333.77h2a.13.13,0,0,1,.13.13.13.13,0,0,1-.13.14h-2a.13.13,0,0,1-.13-.14.13.13,0,0,1,.13-.13Z"/><path d="M139,333.78h2a.13.13,0,1,1,0,.26h-2a.13.13,0,0,1-.13-.13.13.13,0,0,1,.13-.13Z"/><path d="M143,333.78h2a.12.12,0,0,1,0,.24h-2a.12.12,0,0,1-.13-.12.13.13,0,0,1,.12-.13Z"/><path d="M147,333.79h2a.12.12,0,0,1,.12.12.12.12,0,0,1-.12.11h-2a.12.12,0,0,1-.12-.12.12.12,0,0,1,.12-.12Z"/><path d="M151,333.8h2a.11.11,0,1,1,0,.22h-2a.12.12,0,0,1-.12-.11.12.12,0,0,1,.12-.12Z"/><path d="M155,333.81h2a.1.1,0,0,1,.11.1.11.11,0,0,1-.11.11h-2a.11.11,0,0,1,0-.22Z"/><path d="M159,333.82h2a.11.11,0,0,1,.11.11.1.1,0,0,1-.11.1h-2a.09.09,0,0,1-.1-.1.1.1,0,0,1,.1-.11Z"/><path d="M163,333.83h2a.11.11,0,0,1,.1.1.1.1,0,0,1-.1.1h-2a.1.1,0,0,1-.11-.1.1.1,0,0,1,.1-.1Z"/><path d="M167,333.84h2a.09.09,0,0,1,.09.1.09.09,0,0,1-.09.09h-2a.09.09,0,0,1-.1-.1.09.09,0,0,1,.1-.09Z"/><path d="M171,333.85h2a.09.09,0,0,1,0,.18h-2a.09.09,0,1,1,0-.18Z"/><path d="M175,333.86h2a.09.09,0,0,1,.09.09.09.09,0,0,1-.09.08h-2a.09.09,0,0,1-.09-.09.08.08,0,0,1,.09-.08Z"/><path d="M179,333.86h2a.07.07,0,0,1,.08.08.08.08,0,0,1-.08.08h-2A.09.09,0,0,1,179,334a.09.09,0,0,1,.08-.09Z"/><path d="M183,333.87h2a.07.07,0,0,1,.07.07.07.07,0,0,1-.07.08h-2A.08.08,0,0,1,183,334a.08.08,0,0,1,.07-.08Z"/><path d="M187,333.88h2a.07.07,0,0,1,0,.14h-2A.08.08,0,0,1,187,334a.09.09,0,0,1,.08-.08Z"/><path d="M191,333.89h2a.07.07,0,0,1,.07.06.07.07,0,0,1-.07.07h-2a.07.07,0,0,1,0-.14Z"/><path d="M195,333.9h2s.06,0,.06.07a.06.06,0,0,1-.06.06h-2A.07.07,0,0,1,195,334a.06.06,0,0,1,.06-.06Z"/><path d="M199,333.91h2a.06.06,0,1,1,0,.12h-2a.06.06,0,0,1,0-.12Z"/><path d="M203.05,333.92h2a.05.05,0,0,1,0,.05.06.06,0,0,1,0,.06h-2A.06.06,0,0,1,203,334a0,0,0,0,1,0-.05Z"/><path d="M207.05,333.93h2a.05.05,0,0,1,0,.05.06.06,0,0,1,0,0h-2a.05.05,0,0,1-.05,0,0,0,0,0,1,.05-.05Z"/><path d="M211.05,333.94h2a0,0,0,0,1,0,0,0,0,0,0,1,0,0h-2a0,0,0,0,1-.05,0,0,0,0,0,1,.05,0Z"/><path d="M215.05,333.94h2a0,0,0,0,1,0,.08h-2a0,0,0,0,1,0,0,0,0,0,0,1,0-.05Z"/><path d="M219.05,334h2s0,0,0,0,0,0,0,0h-2a0,0,0,0,1,0,0s0,0,0,0Z"/><path d="M223.06,334h2s0,0,0,0l0,0h-2s0,0,0,0a0,0,0,0,1,0,0Z"/><path d="M227.06,334h1s0,0,0,0l0,0h-1s0,0,0,0a0,0,0,0,1,0,0Z"/><path d="M.05,344.94h2a.21.21,0,0,1,0,.42h-2a.2.2,0,0,1-.2-.21A.21.21,0,0,1,.05,344.94Z"/><path d="M4.06,344.93h2a.21.21,0,0,1,.21.22.21.21,0,0,1-.21.21h-2a.21.21,0,0,1-.22-.21A.22.22,0,0,1,4.06,344.93Z"/><path d="M8.06,344.93h2a.22.22,0,1,1,0,.44h-2a.22.22,0,0,1-.22-.22A.21.21,0,0,1,8.06,344.93Z"/><path d="M12.06,344.92h2a.23.23,0,1,1,0,.45h-2a.22.22,0,0,1,0-.44Z"/><path d="M16.06,344.91h2a.23.23,0,0,1,.23.23.22.22,0,0,1-.23.23h-2a.23.23,0,1,1,0-.45Z"/><path d="M20.06,344.9h2a.23.23,0,0,1,.23.24.23.23,0,0,1-.23.23h-2a.23.23,0,1,1,0-.46Z"/><path d="M24.07,344.89h2a.24.24,0,0,1,.24.24.24.24,0,0,1-.24.24h-2a.23.23,0,0,1-.24-.23A.24.24,0,0,1,24.07,344.89Z"/><path d="M28.07,344.88h2a.25.25,0,1,1,0,.49h-2a.24.24,0,0,1-.24-.25A.24.24,0,0,1,28.07,344.88Z"/><path d="M32.07,344.87h2a.25.25,0,0,1,.25.25.25.25,0,0,1-.25.25h-2a.25.25,0,1,1,0-.5Z"/><path d="M36.07,344.87h2a.25.25,0,0,1,0,.5h-2a.25.25,0,0,1-.25-.25.25.25,0,0,1,.25-.25Z"/><path d="M40.07,344.88h2a.25.25,0,0,1,0,.49h-2a.25.25,0,0,1,0-.49Z"/><path d="M44.08,344.89h2a.23.23,0,0,1,.23.24.23.23,0,0,1-.23.23h-2a.23.23,0,0,1-.24-.23.23.23,0,0,1,.24-.24Z"/><path d="M48.08,344.9h2a.23.23,0,0,1,0,.46h-2a.23.23,0,1,1,0-.46Z"/><path d="M52.08,344.91h2a.23.23,0,1,1,0,.45h-2a.23.23,0,1,1,0-.45Z"/><path d="M56.08,344.91h2a.22.22,0,1,1,0,.44h-2a.22.22,0,0,1-.22-.22.23.23,0,0,1,.22-.23Z"/><path d="M60.08,344.92h2a.21.21,0,0,1,.21.22.21.21,0,0,1-.21.21h-2a.22.22,0,0,1,0-.44Z"/><path d="M64.09,344.93h2a.21.21,0,1,1,0,.42h-2a.21.21,0,0,1-.22-.21.22.22,0,0,1,.22-.22Z"/><path d="M68.09,344.94h2a.21.21,0,1,1,0,.41h-2a.21.21,0,0,1-.21-.21.21.21,0,0,1,.21-.21Z"/><path d="M72.09,345h2a.22.22,0,0,1,.21.21.21.21,0,0,1-.21.2h-2a.22.22,0,0,1-.21-.2.21.21,0,0,1,.21-.21Z"/><path d="M76.09,345h2a.2.2,0,1,1,0,.4h-2a.2.2,0,0,1,0-.4Z"/><path d="M80.09,345h2a.2.2,0,0,1,.19.2.2.2,0,0,1-.19.19h-2a.2.2,0,0,1-.19-.2.2.2,0,0,1,.19-.19Z"/><path d="M84.1,345h2a.19.19,0,1,1,0,.38h-2a.19.19,0,0,1-.19-.19.18.18,0,0,1,.19-.19Z"/><path d="M88.1,345h2a.18.18,0,0,1,.18.18.18.18,0,0,1-.18.19h-2a.19.19,0,1,1,0-.37Z"/><path d="M92.1,345h2a.18.18,0,1,1,0,.36h-2a.18.18,0,0,1-.18-.18.19.19,0,0,1,.18-.19Z"/><path d="M96.1,345h2a.18.18,0,0,1,.18.17.18.18,0,0,1-.18.18h-2a.18.18,0,0,1-.17-.18.17.17,0,0,1,.17-.18Z"/><path d="M100.11,345h2a.17.17,0,0,1,.17.17.18.18,0,0,1-.17.17h-2a.18.18,0,0,1,0-.35Z"/><path d="M104.11,345h2a.16.16,0,0,1,.16.16.17.17,0,0,1-.16.17h-2a.17.17,0,1,1,0-.34Z"/><path d="M108.11,345h2a.17.17,0,0,1,.16.17.16.16,0,0,1-.16.16h-2a.17.17,0,0,1-.16-.17.16.16,0,0,1,.16-.16Z"/><path d="M112.11,345h2a.16.16,0,1,1,0,.32h-2a.16.16,0,1,1,0-.32Z"/><path d="M116.11,345.05h2a.16.16,0,0,1,.16.15.16.16,0,0,1-.16.16h-2a.16.16,0,0,1-.15-.16.15.15,0,0,1,.15-.15Z"/><path d="M120.12,345.06h2a.15.15,0,0,1,.14.15.14.14,0,0,1-.14.14h-2a.15.15,0,0,1,0-.29Z"/><path d="M124.12,345.07h2a.14.14,0,0,1,0,.28h-2a.14.14,0,1,1,0-.28Z"/><path d="M128.12,345.07h2a.14.14,0,0,1,.14.14.13.13,0,0,1-.14.13h-2a.14.14,0,0,1-.14-.14.14.14,0,0,1,.14-.14Z"/><path d="M132.12,345.08h2a.13.13,0,1,1,0,.26h-2a.13.13,0,0,1-.13-.13.13.13,0,0,1,.13-.14Z"/><path d="M136.12,345.09h2a.12.12,0,0,1,.13.12.13.13,0,0,1-.13.13h-2a.13.13,0,1,1,0-.26Z"/><path d="M140.13,345.1h2a.12.12,0,0,1,0,.24h-2a.12.12,0,0,1-.13-.12.13.13,0,0,1,.12-.13Z"/><path d="M144.13,345.11h2a.13.13,0,0,1,.12.12.12.12,0,0,1-.12.12h-2a.12.12,0,0,1,0-.24Z"/><path d="M148.13,345.12h2a.11.11,0,0,1,.11.12.11.11,0,0,1-.11.11h-2a.12.12,0,0,1-.12-.11.12.12,0,0,1,.12-.12Z"/><path d="M152.13,345.13h2a.11.11,0,0,1,0,.22h-2a.11.11,0,0,1,0-.22Z"/><path d="M156.13,345.14h2a.11.11,0,0,1,.11.11.11.11,0,0,1-.11.1h-2a.1.1,0,0,1-.1-.11.1.1,0,0,1,.1-.1Z"/><path d="M160.14,345.15h2a.1.1,0,0,1,0,.2h-2a.11.11,0,0,1-.11-.1.1.1,0,0,1,.1-.1Z"/><path d="M164.14,345.16h2a.09.09,0,0,1,.09.09.09.09,0,0,1-.09.1h-2a.09.09,0,0,1-.1-.1.09.09,0,0,1,.1-.09Z"/><path d="M168.14,345.16h2a.09.09,0,0,1,0,.18h-2a.09.09,0,0,1-.09-.09.1.1,0,0,1,.09-.1Z"/><path d="M172.14,345.17h2a.09.09,0,0,1,.09.08.09.09,0,0,1-.09.09h-2a.09.09,0,0,1,0-.18Z"/><path d="M176.14,345.18h2a.07.07,0,0,1,.08.08.08.08,0,0,1-.08.08h-2a.09.09,0,0,1-.08-.09.09.09,0,0,1,.08-.08Z"/><path d="M180.15,345.19h2a.07.07,0,0,1,.07.07.08.08,0,0,1-.07.08h-2a.08.08,0,0,1-.08-.08.08.08,0,0,1,.07-.08Z"/><path d="M184.15,345.2h2a.08.08,0,0,1,.07.08.08.08,0,0,1-.07.07h-2a.09.09,0,0,1-.08-.08.08.08,0,0,1,.08-.07Z"/><path d="M188.15,345.21h2a.07.07,0,1,1,0,.14h-2a.07.07,0,1,1,0-.14Z"/><path d="M192.15,345.22h2a.06.06,0,0,1,.06.06s0,.07-.06.07h-2a.07.07,0,0,1-.06-.07.06.06,0,0,1,.06-.06Z"/><path d="M196.15,345.23h2a.06.06,0,0,1,.06.06s0,0-.06,0h-2a.06.06,0,0,1-.06,0,.06.06,0,0,1,.06-.06Z"/><path d="M200.16,345.24h2a.05.05,0,1,1,0,.1h-2a.06.06,0,0,1-.06,0s0-.05.06-.05Z"/><path d="M204.16,345.24h2a.05.05,0,0,1,.05.05s0,0-.05,0h-2a0,0,0,0,1,0,0,.05.05,0,0,1,0-.05Z"/><path d="M208.16,345.25h2a0,0,0,0,1,0,.08h-2a0,0,0,0,1,0,0,0,0,0,0,1,0-.05Z"/><path d="M212.16,345.26h2s0,0,0,0a0,0,0,0,1,0,0h-2a0,0,0,0,1,0-.08Z"/><path d="M216.16,345.27h2s0,0,0,0,0,0,0,0h-2a0,0,0,0,1,0,0s0,0,0,0Z"/><path d="M220.17,345.28h2s0,0,0,0,0,0,0,0h-2s0,0,0,0,0,0,0,0Z"/><path d="M224.17,345.29h1s0,0,0,0l0,0h-1s0,0,0,0a0,0,0,0,1,0,0Z"/><path d="M.83,356.24h2a.22.22,0,0,1,.23.22.22.22,0,0,1-.22.22h-2a.22.22,0,0,1,0-.44Z"/><path d="M4.84,356.23h2a.22.22,0,0,1,.22.22.22.22,0,0,1-.22.23h-2a.23.23,0,1,1,0-.45Z"/><path d="M8.84,356.22h2a.23.23,0,0,1,0,.46h-2a.23.23,0,0,1-.23-.23A.23.23,0,0,1,8.84,356.22Z"/><path d="M12.84,356.22h2a.24.24,0,0,1,.24.24.23.23,0,0,1-.24.23h-2a.23.23,0,1,1,0-.46Z"/><path d="M16.84,356.21h2a.24.24,0,1,1,0,.48h-2a.24.24,0,1,1,0-.47Z"/><path d="M20.84,356.2h2a.25.25,0,0,1,.25.25.24.24,0,0,1-.24.24h-2a.24.24,0,0,1,0-.48Z"/><path d="M24.85,356.19h2a.26.26,0,0,1,.25.25.25.25,0,0,1-.25.25h-2a.25.25,0,1,1,0-.49Z"/><path d="M28.85,356.19h2a.25.25,0,0,1,0,.49h-2a.25.25,0,1,1,0-.49Z"/><path d="M32.85,356.2h2a.24.24,0,1,1,0,.48h-2a.24.24,0,0,1-.24-.24.24.24,0,0,1,.24-.24Z"/><path d="M36.85,356.2h2a.24.24,0,0,1,.24.24.23.23,0,0,1-.24.23h-2a.24.24,0,0,1-.24-.24.25.25,0,0,1,.24-.24Z"/><path d="M40.85,356.21h2a.23.23,0,1,1,0,.46h-2a.23.23,0,0,1-.23-.23.23.23,0,0,1,.23-.24Z"/><path d="M44.86,356.22h2a.22.22,0,0,1,.22.22.22.22,0,0,1-.22.23h-2a.23.23,0,0,1-.23-.23.23.23,0,0,1,.23-.23Z"/><path d="M48.86,356.23h2a.22.22,0,1,1,0,.44h-2a.23.23,0,1,1,0-.45Z"/><path d="M52.86,356.24h2a.22.22,0,1,1,0,.44h-2a.22.22,0,1,1,0-.44Z"/><path d="M56.86,356.25h2a.22.22,0,1,1,0,.43h-2a.21.21,0,0,1-.21-.22.21.21,0,0,1,.21-.21Z"/><path d="M60.86,356.26h2a.21.21,0,0,1,.2.21.2.2,0,0,1-.2.21h-2a.21.21,0,1,1,0-.42Z"/><path d="M64.87,356.27h2a.2.2,0,0,1,.2.2.2.2,0,0,1-.2.21h-2a.21.21,0,0,1-.21-.21.2.2,0,0,1,.21-.2Z"/><path d="M68.87,356.28h2a.2.2,0,0,1,0,.4h-2a.2.2,0,0,1,0-.4Z"/><path d="M72.87,356.29h2a.19.19,0,0,1,.19.19.19.19,0,0,1-.19.2h-2a.2.2,0,0,1-.2-.2.19.19,0,0,1,.2-.19Z"/><path d="M76.87,356.29h2a.18.18,0,0,1,.19.19.19.19,0,0,1-.19.19h-2a.2.2,0,0,1-.19-.19.2.2,0,0,1,.19-.2Z"/><path d="M80.87,356.3h2a.18.18,0,0,1,.18.18.19.19,0,0,1-.18.19h-2a.19.19,0,0,1,0-.38Z"/><path d="M84.88,356.31h2a.18.18,0,0,1,0,.36h-2a.2.2,0,0,1-.19-.19.18.18,0,0,1,.19-.18Z"/><path d="M88.88,356.32h2a.16.16,0,0,1,.17.17.17.17,0,0,1-.17.18h-2a.18.18,0,1,1,0-.36Z"/><path d="M92.88,356.33h2a.17.17,0,0,1,.17.17.16.16,0,0,1-.17.17h-2a.16.16,0,0,1-.17-.17.17.17,0,0,1,.17-.17Z"/><path d="M96.88,356.34h2a.18.18,0,0,1,.17.17.17.17,0,0,1-.17.16h-2a.17.17,0,0,1-.17-.16.17.17,0,0,1,.17-.17Z"/><path d="M100.88,356.35h2a.16.16,0,0,1,0,.32h-2a.16.16,0,0,1,0-.32Z"/><path d="M104.89,356.36h2a.16.16,0,0,1,.15.16.15.15,0,0,1-.15.15h-2a.16.16,0,0,1-.16-.15.16.16,0,0,1,.16-.16Z"/><path d="M108.89,356.37h2a.15.15,0,1,1,0,.3h-2a.16.16,0,0,1-.16-.15.15.15,0,0,1,.16-.15Z"/><path d="M112.89,356.37h2a.15.15,0,0,1,.15.15.15.15,0,0,1-.15.14h-2a.15.15,0,0,1-.15-.15.15.15,0,0,1,.15-.15Z"/><path d="M116.89,356.38h2a.14.14,0,1,1,0,.28h-2a.14.14,0,0,1-.14-.14.15.15,0,0,1,.14-.15Z"/><path d="M120.89,356.39h2a.13.13,0,0,1,.13.13.13.13,0,0,1-.13.14h-2a.14.14,0,1,1,0-.28Z"/><path d="M124.9,356.4h2a.13.13,0,0,1,.13.13.13.13,0,0,1-.13.13h-2a.13.13,0,0,1-.14-.13.14.14,0,0,1,.14-.14Z"/><path d="M128.9,356.41h2a.13.13,0,1,1,0,.26h-2a.13.13,0,0,1,0-.26Z"/><path d="M132.9,356.42h2a.12.12,0,0,1,.12.13.12.12,0,0,1-.12.12h-2a.13.13,0,0,1-.13-.13.13.13,0,0,1,.13-.12Z"/><path d="M136.9,356.43h2a.12.12,0,0,1,.12.12.12.12,0,0,1-.12.12h-2a.12.12,0,0,1,0-.24Z"/><path d="M140.9,356.44h2a.11.11,0,0,1,.11.11.11.11,0,0,1-.11.12h-2a.11.11,0,0,1-.11-.12.11.11,0,0,1,.11-.11Z"/><path d="M144.91,356.45h2a.11.11,0,1,1,0,.22h-2a.11.11,0,1,1,0-.22Z"/><path d="M148.91,356.45h2a.1.1,0,0,1,.1.1.1.1,0,0,1-.1.11h-2a.11.11,0,0,1,0-.22Z"/><path d="M152.91,356.46h2a.09.09,0,0,1,.1.1.1.1,0,0,1-.1.1h-2a.1.1,0,0,1-.1-.1.1.1,0,0,1,.1-.11Z"/><path d="M156.91,356.47h2a.09.09,0,0,1,.1.09.1.1,0,0,1-.1.1h-2a.1.1,0,0,1-.09-.1.09.09,0,0,1,.09-.1Z"/><path d="M160.91,356.48h2a.09.09,0,0,1,0,.18h-2a.1.1,0,0,1-.09-.1.09.09,0,0,1,.09-.09Z"/><path d="M164.92,356.49h2a.09.09,0,0,1,0,.18h-2a.09.09,0,0,1,0-.18Z"/><path d="M168.92,356.5h2a.09.09,0,0,1,.08.08.08.08,0,0,1-.08.08h-2a.07.07,0,0,1-.08-.08.08.08,0,0,1,.08-.08Z"/><path d="M172.92,356.51h2a.09.09,0,0,1,.08.08.08.08,0,0,1-.08.07h-2a.08.08,0,0,1-.08-.07.08.08,0,0,1,.08-.08Z"/><path d="M176.92,356.52h2a.07.07,0,0,1,0,.14h-2a.07.07,0,1,1,0-.14Z"/><path d="M180.92,356.53h2a.07.07,0,0,1,.06.07.06.06,0,0,1-.06.06h-2a.07.07,0,0,1-.06-.07.06.06,0,0,1,.06-.06Z"/><path d="M184.93,356.53h2a.06.06,0,1,1,0,.12h-2a.07.07,0,0,1-.07-.06.07.07,0,0,1,.07-.07Z"/><path d="M188.93,356.54h2a.06.06,0,0,1,.06.06.06.06,0,0,1-.06.05h-2a.06.06,0,0,1-.06-.06.06.06,0,0,1,.06-.06Z"/><path d="M192.93,356.55h2a.05.05,0,1,1,0,.1h-2a0,0,0,0,1-.05-.05.06.06,0,0,1,.05-.06Z"/><path d="M196.93,356.56h2a0,0,0,0,1,0,0,0,0,0,0,1,0,.05h-2a.05.05,0,1,1,0-.1Z"/><path d="M200.93,356.57h2a0,0,0,0,1,0,.05,0,0,0,0,1,0,0h-2a0,0,0,0,1,0,0,0,0,0,0,1,0-.05Z"/><path d="M204.94,356.58h2a0,0,0,0,1,0,.08h-2a0,0,0,1,1,0-.08Z"/><path d="M208.94,356.59h2s0,0,0,0a0,0,0,0,1,0,0h-2a0,0,0,0,1,0,0s0,0,0,0Z"/><path d="M212.94,356.6h2a0,0,0,1,1,0,.06h-2a0,0,0,1,1,0-.06Z"/><path d="M216.94,356.61h1s0,0,0,0a0,0,0,0,1,0,0h-1s0,0,0,0l0,0Z"/><path d="M-1.09,367.56h2a.22.22,0,0,1,.22.22.22.22,0,0,1-.22.22h-2a.22.22,0,0,1-.22-.22A.22.22,0,0,1-1.09,367.56Z"/><path d="M2.91,367.55h2a.23.23,0,0,1,.23.22.23.23,0,0,1-.23.23h-2a.22.22,0,0,1-.22-.23A.22.22,0,0,1,2.91,367.55Z"/><path d="M6.91,367.54h2a.23.23,0,0,1,.23.23.23.23,0,0,1-.23.23h-2a.23.23,0,1,1,0-.46Z"/><path d="M10.91,367.53h2a.24.24,0,0,1,0,.47h-2a.24.24,0,0,1,0-.47Z"/><path d="M14.92,367.52h2a.24.24,0,1,1,0,.48h-2a.24.24,0,0,1,0-.48Z"/><path d="M18.92,367.52h2a.25.25,0,0,1,0,.49h-2a.25.25,0,0,1-.25-.24A.24.24,0,0,1,18.92,367.52Z"/><path d="M22.92,367.51h2a.25.25,0,1,1,0,.5h-2a.25.25,0,1,1,0-.49Z"/><path d="M26.92,367.5h2a.25.25,0,1,1,0,.49h-2a.25.25,0,0,1-.25-.25.25.25,0,0,1,.25-.25Z"/><path d="M30.92,367.51h2a.24.24,0,1,1,0,.48h-2a.25.25,0,0,1,0-.49Z"/><path d="M34.93,367.52h2a.23.23,0,0,1,.23.23.23.23,0,0,1-.23.24h-2a.24.24,0,0,1,0-.48Z"/><path d="M38.93,367.53h2a.23.23,0,1,1,0,.46h-2a.24.24,0,1,1,0-.47Z"/><path d="M42.93,367.54h2a.23.23,0,0,1,.23.23.23.23,0,0,1-.23.23h-2a.23.23,0,0,1,0-.46Z"/><path d="M46.93,367.55h2a.22.22,0,0,1,.22.23.22.22,0,0,1-.22.22h-2a.22.22,0,0,1-.22-.23.22.22,0,0,1,.22-.22Z"/><path d="M50.93,367.56h2a.22.22,0,0,1,0,.44h-2a.22.22,0,0,1,0-.44Z"/><path d="M54.94,367.57h2a.22.22,0,0,1,0,.43h-2a.22.22,0,0,1-.22-.22.21.21,0,0,1,.21-.21Z"/><path d="M58.94,367.58h2a.21.21,0,0,1,.21.21.22.22,0,0,1-.21.21h-2a.21.21,0,0,1-.21-.21.21.21,0,0,1,.21-.21Z"/><path d="M62.94,367.58h2a.2.2,0,0,1,.2.2.21.21,0,0,1-.2.21h-2a.22.22,0,0,1-.21-.21.21.21,0,0,1,.21-.21Z"/><path d="M66.94,367.59h2a.2.2,0,1,1,0,.4h-2a.2.2,0,0,1-.2-.21.2.2,0,0,1,.2-.2Z"/><path d="M70.94,367.6h2a.19.19,0,1,1,0,.38h-2a.19.19,0,0,1-.19-.19.19.19,0,0,1,.19-.2Z"/><path d="M75,367.61h2a.19.19,0,1,1,0,.37H75a.19.19,0,0,1-.2-.19.2.2,0,0,1,.19-.19Z"/><path d="M79,367.62h2a.19.19,0,0,1,.18.19A.18.18,0,0,1,81,368H79a.18.18,0,0,1-.19-.18.18.18,0,0,1,.19-.19Z"/><path d="M83,367.63h2a.18.18,0,0,1,0,.36H83a.18.18,0,1,1,0-.36Z"/><path d="M87,367.64h2a.18.18,0,0,1,.18.18A.18.18,0,0,1,89,368H87a.18.18,0,0,1-.18-.17.18.18,0,0,1,.18-.18Z"/><path d="M91,367.65h2a.17.17,0,0,1,.17.17A.16.16,0,0,1,93,368H91a.17.17,0,1,1,0-.34Z"/><path d="M95,367.66h2a.16.16,0,0,1,.16.17A.16.16,0,0,1,97,368H95a.16.16,0,0,1-.17-.17.16.16,0,0,1,.16-.16Z"/><path d="M99,367.66h2a.16.16,0,1,1,0,.32H99a.17.17,0,0,1-.17-.16.18.18,0,0,1,.17-.17Z"/><path d="M103,367.67h2a.16.16,0,0,1,.16.15.16.16,0,0,1-.16.16h-2a.16.16,0,0,1-.16-.16.16.16,0,0,1,.16-.16Z"/><path d="M107,367.68h2a.14.14,0,0,1,.15.15.15.15,0,0,1-.15.15h-2a.15.15,0,0,1-.15-.15.16.16,0,0,1,.15-.16Z"/><path d="M111,367.69h2a.14.14,0,0,1,.15.14.15.15,0,0,1-.15.15h-2a.15.15,0,1,1,0-.3Z"/><path d="M115,367.7h2a.16.16,0,0,1,.14.15.14.14,0,0,1-.14.14h-2a.15.15,0,0,1,0-.29Z"/><path d="M119,367.71h2a.15.15,0,0,1,.14.14.14.14,0,0,1-.14.14h-2a.14.14,0,1,1,0-.28Z"/><path d="M123,367.72h2a.13.13,0,0,1,.13.14.13.13,0,0,1-.13.13h-2a.14.14,0,0,1-.14-.14.13.13,0,0,1,.14-.13Z"/><path d="M127,367.73h2a.13.13,0,1,1,0,.26h-2a.13.13,0,0,1,0-.26Z"/><path d="M131,367.74h2a.13.13,0,0,1,.13.12.13.13,0,0,1-.13.13h-2a.12.12,0,0,1-.12-.13.12.12,0,0,1,.12-.12Z"/><path d="M135,367.75h2a.11.11,0,0,1,.11.12.12.12,0,0,1-.11.12h-2a.13.13,0,0,1-.13-.12.12.12,0,0,1,.13-.12Z"/><path d="M139,367.75h2a.11.11,0,0,1,.11.11.12.12,0,0,1-.11.12h-2a.12.12,0,1,1,0-.24Z"/><path d="M143,367.76h2a.11.11,0,1,1,0,.22h-2a.11.11,0,0,1-.11-.12.11.11,0,0,1,.11-.11Z"/><path d="M147,367.77h2a.1.1,0,1,1,0,.2h-2a.11.11,0,0,1-.11-.1.11.11,0,0,1,.11-.11Z"/><path d="M151,367.78h2a.09.09,0,0,1,.1.09.09.09,0,0,1-.1.1h-2a.1.1,0,0,1-.1-.1.11.11,0,0,1,.1-.1Z"/><path d="M155,367.79h2a.1.1,0,0,1,.09.1.09.09,0,0,1-.09.09h-2a.09.09,0,0,1-.1-.09.09.09,0,0,1,.1-.1Z"/><path d="M159,367.8h2a.09.09,0,0,1,0,.18h-2a.09.09,0,0,1,0-.18Z"/><path d="M163,367.81h2a.09.09,0,0,1,.09.09.09.09,0,0,1-.09.08h-2a.09.09,0,0,1-.09-.08.09.09,0,0,1,.09-.09Z"/><path d="M167,367.82h2a.08.08,0,0,1,.08.08.07.07,0,0,1-.08.08h-2a.08.08,0,1,1,0-.16Z"/><path d="M171,367.83h2a.07.07,0,0,1,.08.08.07.07,0,0,1-.08.07h-2a.07.07,0,0,1-.07-.08.07.07,0,0,1,.07-.07Z"/><path d="M175,367.83h2a.07.07,0,0,1,0,.14h-2a.08.08,0,0,1-.08-.07.08.08,0,0,1,.08-.08Z"/><path d="M179,367.84h2a.07.07,0,0,1,.07.06.07.07,0,0,1-.07.07h-2a.07.07,0,0,1,0-.14Z"/><path d="M183,367.85h2a.06.06,0,0,1,.06.06.06.06,0,0,1-.06.06h-2a.06.06,0,0,1-.06-.06s0-.07.06-.07Z"/><path d="M187,367.86h2a.06.06,0,0,1,.06.05.06.06,0,0,1-.06.06h-2a.06.06,0,0,1,0-.12Z"/><path d="M191,367.87h2a.06.06,0,0,1,.06.06.06.06,0,0,1-.06.05h-2a.06.06,0,0,1-.05-.06,0,0,0,0,1,.05-.05Z"/><path d="M195,367.88h2a.05.05,0,0,1,0,.1h-2a.05.05,0,0,1,0-.1Z"/><path d="M199,367.89h2a0,0,0,0,1,0,0,0,0,0,0,1,0,.05h-2a0,0,0,0,1,0-.05,0,0,0,0,1,0,0Z"/><path d="M203,367.9h2a0,0,0,0,1,0,.08h-2a0,0,0,0,1,0,0,0,0,0,0,1,0,0Z"/><path d="M207,367.91h2a0,0,0,0,1,0,0,0,0,0,0,1,0,0h-2s0,0,0,0a0,0,0,0,1,0,0Z"/><path d="M211,367.91h2a0,0,0,0,1,0,0,0,0,0,0,1,0,0h-2l0,0a0,0,0,0,1,0,0Z"/><path d="M215,367.92h1l0,0s0,0,0,0h-1a0,0,0,1,1,0-.06Z"/></g><path id="S" class="cls-3" d="M6.82,385.61l5.2-8.95a3.35,3.35,0,0,1,4.92-1c.72.44,12.42,9,21.82,9,7.51,0,13.14-4.91,13.14-11.12,0-7.37-6.21-12.43-18.35-17.34C20,350.65,6.39,342,6.39,324.93c0-12.86,9.54-27.74,32.51-27.74,14.74,0,26,7.51,28.9,9.68a3.57,3.57,0,0,1,.87,4.76l-5.5,8.24c-1.15,1.73-3.32,2.89-5.05,1.73C57,320.88,46,313.66,38,313.66c-8.23,0-12.71,5.49-12.71,10.11,0,6.79,5.34,11.42,17,16.18,14,5.64,30.2,14,30.2,32.66,0,14.88-12.86,28.61-33.24,28.61-18.2,0-28.9-8.53-31.79-11.27C6.24,388.65,5.52,387.93,6.82,385.61Z"/><path class="cls-4" d="M377,209.11l42.37-91.4a3.71,3.71,0,0,1,6.73,0l42.17,91.4a3.71,3.71,0,0,1-3.36,5.26H380.39A3.71,3.71,0,0,1,377,209.11Z"/><g class="cls-9"><path d="M313.35,129.38h1s0,0,0,0a0,0,0,0,1,0,0h-1s0,0,0,0A0,0,0,0,1,313.35,129.38Z"/><path d="M316.35,129.37h2a0,0,0,0,1,0,0,0,0,0,0,1,0,0h-2a0,0,0,1,1,0-.06Z"/><path d="M320.35,129.36h2a0,0,0,0,1,0,0s0,0,0,0h-2a0,0,0,0,1,0-.07Z"/><path d="M324.36,129.35h2a0,0,0,0,1,0,.08h-2a0,0,0,0,1,0-.08Z"/><path d="M328.36,129.34h2a0,0,0,0,1,0,0,0,0,0,0,1,0,0h-2a0,0,0,0,1,0,0S328.33,129.34,328.36,129.34Z"/><path d="M332.36,129.34h2a0,0,0,0,1,0,.1h-2a0,0,0,0,1-.05-.05A0,0,0,0,1,332.36,129.34Z"/><path d="M336.36,129.33h2a.06.06,0,0,1,.06.06.06.06,0,0,1-.06.05h-2a.05.05,0,0,1,0-.1Z"/><path d="M340.36,129.32h2a.06.06,0,0,1,.05.06s0,.06-.05.06h-2s-.05,0-.05-.06A0,0,0,0,1,340.36,129.32Z"/><path d="M344.37,129.31h2a.07.07,0,0,1,.06.07.06.06,0,0,1-.06.06h-2a.06.06,0,1,1,0-.12Z"/><path d="M348.37,129.3h2a.06.06,0,0,1,.07.06.07.07,0,0,1-.07.07h-2a.07.07,0,0,1-.07-.06A.07.07,0,0,1,348.37,129.3Z"/><path d="M352.37,129.29h2a.07.07,0,1,1,0,.14h-2a.07.07,0,1,1,0-.14Z"/><path d="M356.37,129.28h2a.07.07,0,0,1,.08.08.07.07,0,0,1-.08.07h-2a.07.07,0,0,1-.07-.07A.08.08,0,0,1,356.37,129.28Z"/><path d="M360.37,129.27h2a.09.09,0,0,1,.08.08.08.08,0,0,1-.08.08h-2a.08.08,0,0,1-.08-.08A.09.09,0,0,1,360.37,129.27Z"/><path d="M364.38,129.26h2a.09.09,0,0,1,.09.09c0,.05,0,.08-.09.09h-2a.08.08,0,0,1-.09-.08A.09.09,0,0,1,364.38,129.26Z"/><path d="M368.38,129.25h2a.09.09,0,0,1,.09.09.1.1,0,0,1-.09.1h-2a.1.1,0,0,1-.09-.09A.1.1,0,0,1,368.38,129.25Z"/><path d="M372.38,129.25h2a.09.09,0,0,1,.1.1.1.1,0,0,1-.1.1h-2a.1.1,0,0,1-.09-.1A.09.09,0,0,1,372.38,129.25Z"/><path d="M376.38,129.24h2a.11.11,0,0,1,.11.1.11.11,0,0,1-.11.11h-2a.11.11,0,0,1-.1-.1A.1.1,0,0,1,376.38,129.24Z"/><path d="M380.38,129.23h2a.11.11,0,0,1,0,.22h-2a.11.11,0,0,1-.1-.11A.1.1,0,0,1,380.38,129.23Z"/><path d="M384.39,129.22h2a.11.11,0,0,1,.11.12.11.11,0,0,1-.11.11h-2a.11.11,0,0,1,0-.22Z"/><path d="M388.39,129.21h2a.12.12,0,0,1,.12.11.12.12,0,0,1-.12.12h-2a.12.12,0,0,1-.12-.12A.12.12,0,0,1,388.39,129.21Z"/><path d="M392.39,129.2h2a.12.12,0,0,1,.12.12.12.12,0,0,1-.12.12h-2a.12.12,0,0,1,0-.24Z"/><path d="M396.39,129.19h2a.12.12,0,0,1,.13.12.13.13,0,0,1-.13.13h-2a.12.12,0,0,1-.12-.12A.12.12,0,0,1,396.39,129.19Z"/><path d="M400.39,129.18h2a.13.13,0,0,1,0,.26h-2a.13.13,0,0,1,0-.26Z"/><path d="M404.4,129.17h2a.13.13,0,0,1,.13.13.13.13,0,0,1-.13.14h-2a.13.13,0,0,1-.14-.13A.14.14,0,0,1,404.4,129.17Z"/><path d="M408.4,129.16h2a.14.14,0,0,1,0,.28h-2a.14.14,0,0,1-.14-.14A.14.14,0,0,1,408.4,129.16Z"/><path d="M412.4,129.16h2a.15.15,0,0,1,.15.15.15.15,0,0,1-.15.14h-2a.14.14,0,0,1,0-.28Z"/><path d="M416.4,129.15h2a.15.15,0,0,1,0,.3h-2a.14.14,0,0,1-.14-.15A.14.14,0,0,1,416.4,129.15Z"/><path d="M420.4,129.14h2a.16.16,0,0,1,.15.16.15.15,0,0,1-.15.15h-2a.15.15,0,0,1,0-.3Z"/><path d="M424.41,129.13h2a.16.16,0,0,1,.16.16.16.16,0,0,1-.16.16h-2a.16.16,0,0,1-.16-.15A.16.16,0,0,1,424.41,129.13Z"/><path d="M428.41,129.12h2a.16.16,0,1,1,0,.32h-2a.16.16,0,1,1,0-.32Z"/><path d="M432.41,129.11h2a.17.17,0,0,1,.17.16.16.16,0,0,1-.17.17h-2a.17.17,0,0,1-.17-.16A.18.18,0,0,1,432.41,129.11Z"/><path d="M436.41,129.1h2a.17.17,0,1,1,0,.34h-2a.17.17,0,0,1-.17-.17A.18.18,0,0,1,436.41,129.1Z"/><path d="M440.41,129.09h2a.18.18,0,0,1,.17.18.19.19,0,0,1-.17.18h-2a.17.17,0,0,1-.17-.17A.18.18,0,0,1,440.41,129.09Z"/><path d="M444.42,129.08h2a.18.18,0,0,1,.18.18.19.19,0,0,1-.18.19h-2a.19.19,0,0,1-.18-.19A.18.18,0,0,1,444.42,129.08Z"/><path d="M448.42,129.08h2a.19.19,0,0,1,.19.19.2.2,0,0,1-.19.19h-2a.2.2,0,0,1-.19-.19A.19.19,0,0,1,448.42,129.08Z"/><path d="M452.42,129.07h2a.19.19,0,0,1,.19.19.19.19,0,0,1-.19.2h-2a.2.2,0,0,1-.19-.19A.19.19,0,0,1,452.42,129.07Z"/><path d="M456.42,129.06h2a.2.2,0,0,1,0,.4h-2a.19.19,0,0,1-.19-.2A.18.18,0,0,1,456.42,129.06Z"/><path d="M460.42,129.05h2a.2.2,0,0,1,.2.21.2.2,0,0,1-.2.2h-2a.2.2,0,0,1,0-.4Z"/><path d="M464.43,129h2a.21.21,0,0,1,.2.21.2.2,0,0,1-.2.21h-2a.21.21,0,0,1-.21-.21A.2.2,0,0,1,464.43,129Z"/><path d="M468.43,129h2a.21.21,0,0,1,.21.21.21.21,0,0,1-.21.21h-2a.21.21,0,0,1-.21-.21A.21.21,0,0,1,468.43,129Z"/><path d="M472.43,129h2a.21.21,0,0,1,.22.21.22.22,0,0,1-.22.22h-2a.21.21,0,0,1-.21-.21A.21.21,0,0,1,472.43,129Z"/><path d="M476.43,129h2a.23.23,0,0,1,.23.22.22.22,0,0,1-.23.22h-2a.22.22,0,0,1,0-.44Z"/><path d="M480.43,129h2a.22.22,0,0,1,.22.22.22.22,0,0,1-.22.23h-2a.22.22,0,0,1-.22-.22A.22.22,0,0,1,480.43,129Z"/><path d="M484.44,129h2a.23.23,0,0,1,.23.23.23.23,0,0,1-.23.23h-2a.23.23,0,0,1-.23-.23A.23.23,0,0,1,484.44,129Z"/><path d="M488.44,129h2a.24.24,0,0,1,.24.24.23.23,0,0,1-.24.23h-2a.23.23,0,0,1,0-.46Z"/><path d="M492.44,129h2a.24.24,0,0,1,.24.24.24.24,0,0,1-.24.24h-2a.24.24,0,1,1,0-.47Z"/><path d="M496.44,129h2a.25.25,0,1,1,0,.49h-2a.24.24,0,0,1,0-.48Z"/><path d="M321.36,140.62h1s0,0,0,0,0,0,0,0h-1a0,0,0,0,1,0,0S321.34,140.62,321.36,140.62Z"/><path d="M324.36,140.61h2a0,0,0,0,1,0,0,0,0,0,0,1,0,0h-2a0,0,0,0,1,0,0A0,0,0,0,1,324.36,140.61Z"/><path d="M328.36,140.6h2s0,0,0,0a0,0,0,0,1,0,0h-2s0,0,0,0A0,0,0,0,1,328.36,140.6Z"/><path d="M332.36,140.59h2a0,0,0,0,1,0,.08h-2s0,0,0,0S332.34,140.59,332.36,140.59Z"/><path d="M336.37,140.58h2a0,0,0,0,1,0,0,0,0,0,0,1,0,0h-2a0,0,0,0,1-.05,0A0,0,0,0,1,336.37,140.58Z"/><path d="M340.37,140.57h2a.05.05,0,0,1,0,.1h-2a0,0,0,0,1-.05,0A.05.05,0,0,1,340.37,140.57Z"/><path d="M344.37,140.57h2s.05,0,.06.06a.06.06,0,0,1-.06,0h-2a.05.05,0,0,1,0-.1Z"/><path d="M348.37,140.56h2a.06.06,0,0,1,0,.12h-2a.06.06,0,0,1-.06-.06A.06.06,0,0,1,348.37,140.56Z"/><path d="M352.37,140.55h2a.07.07,0,0,1,.07.07.07.07,0,0,1-.07.06h-2a.06.06,0,0,1-.06-.06A.06.06,0,0,1,352.37,140.55Z"/><path d="M356.38,140.54h2a.07.07,0,0,1,0,.14h-2a.07.07,0,0,1-.07-.07A.07.07,0,0,1,356.38,140.54Z"/><path d="M360.38,140.53h2a.08.08,0,0,1,.07.08.07.07,0,0,1-.07.07h-2a.07.07,0,0,1,0-.14Z"/><path d="M364.38,140.52h2a.08.08,0,0,1,.08.07.08.08,0,0,1-.08.08h-2a.08.08,0,0,1-.08-.07A.08.08,0,0,1,364.38,140.52Z"/><path d="M368.38,140.51h2a.08.08,0,1,1,0,.16h-2a.08.08,0,0,1-.08-.08A.09.09,0,0,1,368.38,140.51Z"/><path d="M372.38,140.5h2a.09.09,0,0,1,.09.09.09.09,0,0,1-.09.08h-2a.08.08,0,0,1-.08-.08A.09.09,0,0,1,372.38,140.5Z"/><path d="M376.39,140.49h2a.09.09,0,0,1,0,.18h-2a.09.09,0,1,1,0-.18Z"/><path d="M380.39,140.48h2a.1.1,0,0,1,.1.1.1.1,0,0,1-.1.09h-2a.09.09,0,0,1-.1-.09A.1.1,0,0,1,380.39,140.48Z"/><path d="M384.39,140.48h2a.1.1,0,0,1,.1.1.1.1,0,0,1-.1.11h-2a.1.1,0,0,1-.1-.1A.09.09,0,0,1,384.39,140.48Z"/><path d="M388.39,140.47h2a.11.11,0,1,1,0,.22h-2a.1.1,0,0,1-.1-.11A.09.09,0,0,1,388.39,140.47Z"/><path d="M392.39,140.46h2a.11.11,0,0,1,.12.11.12.12,0,0,1-.12.12h-2a.11.11,0,0,1,0-.22Z"/><path d="M396.4,140.45h2a.12.12,0,0,1,0,.24h-2a.12.12,0,0,1-.12-.12A.11.11,0,0,1,396.4,140.45Z"/><path d="M400.4,140.44h2a.11.11,0,0,1,.12.12.12.12,0,0,1-.12.12h-2a.12.12,0,0,1-.12-.12A.12.12,0,0,1,400.4,140.44Z"/><path d="M404.4,140.43h2a.12.12,0,0,1,.13.12.13.13,0,0,1-.13.13h-2a.12.12,0,0,1-.12-.13A.12.12,0,0,1,404.4,140.43Z"/><path d="M408.4,140.42h2a.13.13,0,0,1,.13.13.13.13,0,0,1-.13.13h-2a.13.13,0,0,1,0-.26Z"/><path d="M412.4,140.41h2a.13.13,0,0,1,.14.13.14.14,0,0,1-.14.14h-2a.13.13,0,0,1-.13-.13A.13.13,0,0,1,412.4,140.41Z"/><path d="M416.41,140.4h2a.14.14,0,1,1,0,.28h-2a.14.14,0,0,1-.14-.14A.14.14,0,0,1,416.41,140.4Z"/><path d="M420.41,140.39h2a.14.14,0,0,1,.14.14.15.15,0,0,1-.14.15h-2a.15.15,0,0,1-.15-.14A.15.15,0,0,1,420.41,140.39Z"/><path d="M424.41,140.39h2a.15.15,0,1,1,0,.3h-2a.15.15,0,0,1-.15-.15A.15.15,0,0,1,424.41,140.39Z"/><path d="M428.41,140.38h2a.16.16,0,0,1,.16.16.16.16,0,0,1-.16.15h-2a.15.15,0,0,1-.15-.15A.15.15,0,0,1,428.41,140.38Z"/><path d="M432.41,140.37h2a.16.16,0,0,1,.16.16.16.16,0,0,1-.15.16h-2a.16.16,0,0,1-.15-.16A.15.15,0,0,1,432.41,140.37Z"/><path d="M436.42,140.36h2a.17.17,0,0,1,.16.17.16.16,0,0,1-.16.16h-2a.16.16,0,1,1,0-.32Z"/><path d="M440.42,140.35h2a.17.17,0,0,1,.17.16.17.17,0,0,1-.17.17h-2a.17.17,0,0,1-.17-.16A.17.17,0,0,1,440.42,140.35Z"/><path d="M444.42,140.34h2a.17.17,0,0,1,0,.34h-2a.16.16,0,0,1-.17-.17A.17.17,0,0,1,444.42,140.34Z"/><path d="M448.42,140.33h2a.18.18,0,0,1,.18.18.18.18,0,0,1-.18.17h-2a.17.17,0,0,1-.17-.17A.17.17,0,0,1,448.42,140.33Z"/><path d="M452.42,140.32h2a.18.18,0,0,1,.19.18.18.18,0,0,1-.18.18h-2a.18.18,0,0,1,0-.36Z"/><path d="M456.43,140.31h2a.18.18,0,0,1,.18.19.18.18,0,0,1-.18.18h-2a.18.18,0,0,1-.19-.18A.19.19,0,0,1,456.43,140.31Z"/><path d="M460.43,140.3h2a.2.2,0,0,1,.19.19.19.19,0,0,1-.19.2h-2a.19.19,0,0,1-.19-.19A.19.19,0,0,1,460.43,140.3Z"/><path d="M464.43,140.3h2a.2.2,0,0,1,0,.4h-2a.2.2,0,0,1-.2-.2A.19.19,0,0,1,464.43,140.3Z"/><path d="M468.43,140.29h2a.2.2,0,0,1,.2.2.2.2,0,0,1-.2.21h-2a.2.2,0,0,1,0-.4Z"/><path d="M472.43,140.28h2a.21.21,0,0,1,0,.42h-2a.2.2,0,0,1-.2-.21A.2.2,0,0,1,472.43,140.28Z"/><path d="M476.44,140.27h2a.22.22,0,0,1,0,.43h-2a.21.21,0,0,1-.21-.21A.21.21,0,0,1,476.44,140.27Z"/><path d="M480.44,140.26h2a.21.21,0,0,1,.22.21.22.22,0,0,1-.22.22h-2a.22.22,0,1,1,0-.43Z"/><path d="M484.44,140.25h2a.22.22,0,1,1,0,.44h-2a.22.22,0,1,1,0-.44Z"/><path d="M488.44,140.24h2a.23.23,0,1,1,0,.45h-2a.22.22,0,0,1-.22-.22A.22.22,0,0,1,488.44,140.24Z"/><path d="M492.44,140.23h2a.23.23,0,1,1,0,.46h-2a.22.22,0,0,1-.22-.23A.23.23,0,0,1,492.44,140.23Z"/><path d="M496.45,140.22h2a.23.23,0,0,1,.23.23.23.23,0,0,1-.23.24h-2a.23.23,0,0,1-.24-.23A.24.24,0,0,1,496.45,140.22Z"/><path d="M236.29,152.18h1s0,0,0,0,0,0,0,0h-1a0,0,0,0,1,0,0S236.27,152.18,236.29,152.18Z"/><path d="M239.29,152.17h2a0,0,0,0,1,0,0,0,0,0,0,1,0,0h-2a0,0,0,0,1,0,0A0,0,0,0,1,239.29,152.17Z"/><path d="M243.29,152.16h2s0,0,0,0a0,0,0,0,1,0,0h-2s0,0,0,0A0,0,0,0,1,243.29,152.16Z"/><path d="M247.29,152.15h2a0,0,0,1,1,0,.08h-2a0,0,0,1,1,0-.08Z"/><path d="M251.29,152.14h2a0,0,0,0,1,.05,0,0,0,0,0,1-.05,0h-2a0,0,0,0,1,0,0A0,0,0,0,1,251.29,152.14Z"/><path d="M255.29,152.13h2a0,0,0,0,1,0,.1h-2a0,0,0,0,1,0,0S255.27,152.13,255.29,152.13Z"/><path d="M259.3,152.13h2s.05,0,.05.06a0,0,0,0,1-.05,0h-2a.05.05,0,1,1,0-.1Z"/><path d="M263.3,152.12h2a.06.06,0,1,1,0,.12h-2a.06.06,0,0,1-.06-.06A.06.06,0,0,1,263.3,152.12Z"/><path d="M267.3,152.11h2a.07.07,0,0,1,.07.07.07.07,0,0,1-.07.06h-2a.06.06,0,0,1-.06-.06A.06.06,0,0,1,267.3,152.11Z"/><path d="M271.3,152.1h2a.07.07,0,1,1,0,.14h-2a.07.07,0,0,1-.06-.07A.06.06,0,0,1,271.3,152.1Z"/><path d="M275.3,152.09h2a.08.08,0,0,1,.07.08.07.07,0,0,1-.07.07h-2a.07.07,0,1,1,0-.14Z"/><path d="M279.31,152.08h2a.08.08,0,0,1,.08.07.08.08,0,0,1-.08.08h-2a.07.07,0,0,1-.08-.07A.07.07,0,0,1,279.31,152.08Z"/><path d="M283.31,152.07h2a.08.08,0,0,1,0,.16h-2a.07.07,0,0,1-.08-.08A.08.08,0,0,1,283.31,152.07Z"/><path d="M287.31,152.06h2a.09.09,0,0,1,.09.09.09.09,0,0,1-.09.08h-2a.07.07,0,0,1-.08-.08A.08.08,0,0,1,287.31,152.06Z"/><path d="M291.31,152.05h2a.1.1,0,0,1,.1.09.09.09,0,0,1-.1.09h-2a.09.09,0,0,1,0-.18Z"/><path d="M295.31,152h2a.09.09,0,0,1,.09.1.09.09,0,0,1-.09.09h-2a.09.09,0,0,1-.09-.09A.1.1,0,0,1,295.31,152Z"/><path d="M299.32,152h2a.11.11,0,0,1,.1.1.11.11,0,0,1-.1.11h-2a.09.09,0,0,1-.1-.09A.09.09,0,0,1,299.32,152Z"/><path d="M303.32,152h2a.11.11,0,0,1,0,.22h-2a.11.11,0,0,1-.11-.11A.1.1,0,0,1,303.32,152Z"/><path d="M307.32,152h2a.11.11,0,0,1,.11.11.11.11,0,0,1-.11.12h-2a.11.11,0,0,1,0-.22Z"/><path d="M311.32,152h2a.12.12,0,0,1,0,.24h-2a.11.11,0,0,1-.11-.12A.11.11,0,0,1,311.32,152Z"/><path d="M315.32,152h2a.13.13,0,0,1,.12.13.13.13,0,0,1-.12.12h-2a.12.12,0,0,1-.11-.12A.11.11,0,0,1,315.32,152Z"/><path d="M319.33,152h2a.12.12,0,0,1,.12.12.12.12,0,0,1-.12.13h-2a.13.13,0,0,1-.13-.13A.13.13,0,0,1,319.33,152Z"/><path d="M323.33,152h2a.13.13,0,1,1,0,.26h-2a.13.13,0,0,1,0-.26Z"/><path d="M327.33,152h2a.13.13,0,0,1,.14.13.14.14,0,0,1-.14.14h-2a.13.13,0,0,1-.13-.13A.13.13,0,0,1,327.33,152Z"/><path d="M331.33,152h2a.14.14,0,1,1,0,.28h-2a.13.13,0,0,1-.13-.14A.14.14,0,0,1,331.33,152Z"/><path d="M335.33,152h2a.14.14,0,0,1,.14.14.15.15,0,0,1-.14.15h-2a.14.14,0,0,1-.14-.14A.15.15,0,0,1,335.33,152Z"/><path d="M339.34,152h2a.15.15,0,1,1,0,.3h-2a.15.15,0,0,1-.15-.15A.15.15,0,0,1,339.34,152Z"/><path d="M343.34,151.94h2a.15.15,0,0,1,.15.16.15.15,0,0,1-.15.15h-2a.15.15,0,0,1-.15-.15A.14.14,0,0,1,343.34,151.94Z"/><path d="M347.34,151.93h2a.16.16,0,1,1,0,.32h-2a.16.16,0,0,1-.16-.16A.16.16,0,0,1,347.34,151.93Z"/><path d="M351.34,151.92h2a.18.18,0,0,1,.17.17.16.16,0,0,1-.17.16h-2a.16.16,0,1,1,0-.32Z"/><path d="M355.34,151.91h2a.17.17,0,0,1,.17.16.17.17,0,0,1-.17.17h-2a.16.16,0,0,1-.16-.16A.16.16,0,0,1,355.34,151.91Z"/><path d="M359.35,151.9h2a.17.17,0,0,1,0,.34h-2a.16.16,0,0,1-.17-.17A.17.17,0,0,1,359.35,151.9Z"/><path d="M363.35,151.89h2a.18.18,0,0,1,.18.18.18.18,0,0,1-.18.17h-2a.18.18,0,0,1-.18-.17A.18.18,0,0,1,363.35,151.89Z"/><path d="M367.35,151.88h2a.18.18,0,1,1,0,.36h-2a.18.18,0,1,1,0-.36Z"/><path d="M371.35,151.87h2a.18.18,0,0,1,.19.19.18.18,0,0,1-.19.18h-2a.18.18,0,0,1-.18-.18A.19.19,0,0,1,371.35,151.87Z"/><path d="M375.35,151.86h2a.2.2,0,0,1,.19.19.2.2,0,0,1-.19.2h-2a.19.19,0,0,1-.19-.19A.2.2,0,0,1,375.35,151.86Z"/><path d="M379.36,151.86h2a.2.2,0,0,1,0,.4h-2a.2.2,0,0,1-.2-.2A.19.19,0,0,1,379.36,151.86Z"/><path d="M383.36,151.85h2a.2.2,0,0,1,.2.2.2.2,0,0,1-.2.21h-2a.2.2,0,1,1,0-.4Z"/><path d="M387.36,151.84h2a.21.21,0,1,1,0,.42h-2a.2.2,0,0,1-.2-.21A.2.2,0,0,1,387.36,151.84Z"/><path d="M391.36,151.83h2a.22.22,0,1,1,0,.43h-2a.22.22,0,0,1-.21-.21A.21.21,0,0,1,391.36,151.83Z"/><path d="M395.37,151.82h2a.21.21,0,0,1,.21.21.21.21,0,0,1-.21.22h-2a.22.22,0,1,1,0-.43Z"/><path d="M399.37,151.81h2a.22.22,0,0,1,.22.22.22.22,0,0,1-.22.22h-2a.22.22,0,0,1,0-.44Z"/><path d="M403.37,151.8h2a.23.23,0,0,1,.23.22.23.23,0,0,1-.23.23h-2a.22.22,0,0,1-.22-.22A.22.22,0,0,1,403.37,151.8Z"/><path d="M407.37,151.79h2a.23.23,0,1,1,0,.46h-2a.23.23,0,0,1-.23-.23A.24.24,0,0,1,407.37,151.79Z"/><path d="M411.37,151.78h2a.24.24,0,1,1,0,.47h-2a.23.23,0,0,1-.23-.23A.23.23,0,0,1,411.37,151.78Z"/><path d="M415.38,151.77h2a.24.24,0,1,1,0,.48h-2a.24.24,0,0,1,0-.48Z"/><path d="M419.38,151.77h2a.25.25,0,0,1,0,.49h-2a.25.25,0,0,1-.25-.24A.24.24,0,0,1,419.38,151.77Z"/><path d="M423.38,151.76h2a.25.25,0,0,1,0,.5h-2a.25.25,0,1,1,0-.49Z"/><path d="M427.38,151.76h2a.25.25,0,1,1,0,.49h-2a.25.25,0,1,1,0-.49Z"/><path d="M431.38,151.76h2a.24.24,0,1,1,0,.48h-2a.25.25,0,0,1,0-.49Z"/><path d="M435.39,151.77h2a.23.23,0,0,1,.23.23.23.23,0,0,1-.23.24h-2a.24.24,0,0,1,0-.48Z"/><path d="M439.39,151.78h2a.23.23,0,1,1,0,.46h-2a.23.23,0,0,1-.24-.23.24.24,0,0,1,.24-.24Z"/><path d="M443.39,151.79h2a.23.23,0,1,1,0,.45h-2a.23.23,0,1,1,0-.46Z"/><path d="M447.39,151.8h2a.22.22,0,0,1,.22.23.22.22,0,0,1-.22.22h-2a.22.22,0,0,1-.22-.23.22.22,0,0,1,.22-.22Z"/><path d="M451.39,151.81h2a.22.22,0,1,1,0,.44h-2a.22.22,0,1,1,0-.44Z"/><path d="M455.4,151.82h2a.22.22,0,0,1,0,.43h-2a.22.22,0,0,1-.22-.22.21.21,0,0,1,.21-.21Z"/><path d="M459.4,151.83h2a.21.21,0,0,1,.21.21.22.22,0,0,1-.21.21h-2a.21.21,0,0,1-.21-.21.21.21,0,0,1,.21-.21Z"/><path d="M463.4,151.84h2a.2.2,0,0,1,.2.2.2.2,0,0,1-.2.21h-2a.21.21,0,0,1-.21-.21.2.2,0,0,1,.21-.2Z"/><path d="M467.4,151.84h2a.2.2,0,1,1,0,.4h-2a.2.2,0,0,1-.2-.2.2.2,0,0,1,.2-.21Z"/><path d="M471.4,151.85h2a.19.19,0,0,1,.2.19.2.2,0,0,1-.2.2h-2a.2.2,0,0,1,0-.4Z"/><path d="M475.41,151.86h2a.19.19,0,1,1,0,.37h-2a.2.2,0,0,1-.2-.2.2.2,0,0,1,.19-.19Z"/><path d="M479.41,151.87h2a.18.18,0,1,1,0,.36h-2a.18.18,0,0,1-.19-.18.19.19,0,0,1,.19-.19Z"/><path d="M483.41,151.88h2a.19.19,0,0,1,.18.18.18.18,0,0,1-.18.18h-2a.18.18,0,0,1,0-.36Z"/><path d="M487.41,151.89h2a.18.18,0,0,1,.18.18.17.17,0,0,1-.18.17h-2a.18.18,0,0,1-.18-.17.18.18,0,0,1,.18-.18Z"/><path d="M491.41,151.9h2a.17.17,0,0,1,.17.17.16.16,0,0,1-.17.17h-2a.17.17,0,0,1-.17-.17.18.18,0,0,1,.17-.17Z"/><path d="M495.42,151.91h2a.17.17,0,0,1,.16.17.16.16,0,0,1-.16.16h-2a.17.17,0,0,1,0-.33Z"/><path d="M499.42,151.92h2a.16.16,0,0,1,0,.32h-2a.16.16,0,1,1,0-.32Z"/><path d="M279.92,163.13h1s0,0,0,0l0,0h-1s0,0,0,0A0,0,0,0,1,279.92,163.13Z"/><path d="M282.92,163.13h2a0,0,0,0,1,0,0s0,0,0,0h-2s0,0,0,0A0,0,0,0,1,282.92,163.13Z"/><path d="M286.92,163.12h2a0,0,0,1,1,0,.08h-2s0,0,0,0A0,0,0,0,1,286.92,163.12Z"/><path d="M290.92,163.11h2a0,0,0,0,1,0,0,0,0,0,0,1,0,0h-2a0,0,0,1,1,0-.08Z"/><path d="M294.92,163.1h2a0,0,0,0,1,.05,0,0,0,0,0,1-.05.05h-2a0,0,0,0,1,0-.05A0,0,0,0,1,294.92,163.1Z"/><path d="M298.93,163.09h2a.05.05,0,0,1,.05,0,.06.06,0,0,1-.05.05h-2a0,0,0,1,1,0-.1Z"/><path d="M302.93,163.08h2a0,0,0,0,1,.05,0,.06.06,0,0,1-.05.06h-2a.06.06,0,1,1,0-.11Z"/><path d="M306.93,163.07h2a.06.06,0,1,1,0,.12h-2a.06.06,0,1,1,0-.12Z"/><path d="M310.93,163.06h2a.07.07,0,0,1,.07.06.07.07,0,0,1-.07.07h-2a.06.06,0,0,1-.06-.06A.07.07,0,0,1,310.93,163.06Z"/><path d="M314.93,163.06h2a.07.07,0,1,1,0,.14h-2a.07.07,0,0,1-.06-.07A.06.06,0,0,1,314.93,163.06Z"/><path d="M318.94,163.05h2a.08.08,0,0,1,.07.08.07.07,0,0,1-.07.07h-2a.07.07,0,1,1,0-.14Z"/><path d="M322.94,163h2a.09.09,0,0,1,.08.08.08.08,0,0,1-.08.08h-2a.08.08,0,0,1-.08-.08A.08.08,0,0,1,322.94,163Z"/><path d="M326.94,163h2a.08.08,0,0,1,.08.09.08.08,0,0,1-.08.08h-2a.08.08,0,1,1,0-.16Z"/><path d="M330.94,163h2a.08.08,0,0,1,.09.08.09.09,0,0,1-.09.09h-2a.08.08,0,0,1-.08-.08A.08.08,0,0,1,330.94,163Z"/><path d="M334.94,163h2a.09.09,0,1,1,0,.18h-2a.09.09,0,0,1,0-.18Z"/><path d="M339,163h2a.09.09,0,0,1,.09.09.09.09,0,0,1-.09.1h-2a.09.09,0,0,1-.1-.09A.09.09,0,0,1,339,163Z"/><path d="M343,163h2a.1.1,0,0,1,.1.1.09.09,0,0,1-.1.1h-2a.09.09,0,0,1-.1-.1A.1.1,0,0,1,343,163Z"/><path d="M347,163h2a.11.11,0,0,1,.11.11.1.1,0,0,1-.11.1h-2a.1.1,0,0,1-.11-.1A.11.11,0,0,1,347,163Z"/><path d="M351,163h2a.11.11,0,1,1,0,.22h-2a.11.11,0,0,1-.11-.11A.1.1,0,0,1,351,163Z"/><path d="M355,163h2a.12.12,0,0,1,.12.12.11.11,0,0,1-.12.11h-2a.11.11,0,0,1,0-.22Z"/><path d="M359,163h2a.13.13,0,0,1,.12.12.14.14,0,0,1-.12.13h-2a.11.11,0,0,1-.12-.11A.12.12,0,0,1,359,163Z"/><path d="M363,163h2a.13.13,0,0,1,0,.26h-2a.13.13,0,0,1-.13-.13A.12.12,0,0,1,363,163Z"/><path d="M367,162.94h2a.13.13,0,0,1,.13.14.13.13,0,0,1-.13.13h-2a.13.13,0,0,1,0-.26Z"/><path d="M371,162.93h2a.13.13,0,0,1,.14.13.14.14,0,0,1-.14.14h-2a.13.13,0,0,1-.13-.14A.13.13,0,0,1,371,162.93Z"/><path d="M375,162.92h2a.14.14,0,0,1,.14.14.14.14,0,0,1-.14.14h-2a.14.14,0,0,1,0-.28Z"/><path d="M379,162.91h2a.14.14,0,0,1,.14.14.15.15,0,0,1-.14.15h-2a.15.15,0,1,1,0-.29Z"/><path d="M383,162.9h2a.15.15,0,1,1,0,.3h-2a.15.15,0,0,1,0-.3Z"/><path d="M387,162.89h2a.16.16,0,0,1,.16.15.16.16,0,0,1-.16.16h-2a.15.15,0,0,1-.15-.15A.16.16,0,0,1,387,162.89Z"/><path d="M391,162.89h2a.16.16,0,1,1,0,.32h-2a.16.16,0,0,1-.16-.16A.16.16,0,0,1,391,162.89Z"/><path d="M395,162.88h2a.17.17,0,0,1,.17.17.16.16,0,0,1-.17.16h-2a.16.16,0,1,1,0-.32Z"/><path d="M399,162.87h2a.17.17,0,0,1,0,.34h-2a.16.16,0,0,1-.17-.17A.16.16,0,0,1,399,162.87Z"/><path d="M403,162.86h2a.18.18,0,0,1,.17.18.18.18,0,0,1-.17.17h-2a.17.17,0,0,1-.17-.17A.16.16,0,0,1,403,162.86Z"/><path d="M407,162.85h2a.18.18,0,0,1,0,.36h-2a.18.18,0,0,1-.18-.17A.18.18,0,0,1,407,162.85Z"/><path d="M411,162.84h2a.18.18,0,1,1,0,.36h-2a.18.18,0,0,1,0-.36Z"/><path d="M415,162.83h2a.19.19,0,1,1,0,.37h-2a.18.18,0,0,1-.18-.18A.18.18,0,0,1,415,162.83Z"/><path d="M419,162.82h2a.19.19,0,0,1,0,.38h-2a.18.18,0,0,1-.19-.19A.19.19,0,0,1,419,162.82Z"/><path d="M423,162.81h2a.2.2,0,1,1,0,.39h-2a.19.19,0,0,1-.2-.19A.2.2,0,0,1,423,162.81Z"/><path d="M427,162.8h2a.2.2,0,0,1,0,.4h-2a.2.2,0,0,1,0-.4Z"/><path d="M431,162.8h2a.21.21,0,0,1,.21.21.2.2,0,0,1-.21.2h-2a.2.2,0,0,1,0-.4Z"/><path d="M435,162.79h2a.22.22,0,0,1,.22.21.23.23,0,0,1-.21.22h-2a.21.21,0,1,1,0-.41Z"/><path d="M439,162.78h2a.22.22,0,0,1,0,.44h-2a.22.22,0,0,1-.22-.22A.21.21,0,0,1,439,162.78Z"/><path d="M443,162.77h2a.22.22,0,0,1,.22.22.22.22,0,0,1-.22.23h-2a.22.22,0,0,1,0-.44Z"/><path d="M447,162.76h2a.22.22,0,0,1,.23.22.23.23,0,0,1-.23.23h-2a.22.22,0,0,1-.22-.23A.22.22,0,0,1,447,162.76Z"/><path d="M451,162.75h2a.23.23,0,0,1,.23.23.23.23,0,0,1-.23.23h-2a.24.24,0,0,1-.23-.23A.23.23,0,0,1,451,162.75Z"/><path d="M455,162.74h2a.24.24,0,1,1,0,.47h-2a.24.24,0,0,1,0-.47Z"/><path d="M459,162.73h2a.24.24,0,0,1,0,.48h-2a.24.24,0,0,1,0-.48Z"/><path d="M463,162.72h2a.25.25,0,0,1,0,.49h-2a.24.24,0,0,1-.24-.24A.24.24,0,0,1,463,162.72Z"/><path d="M467,162.71h2a.25.25,0,0,1,0,.5h-2a.25.25,0,0,1-.25-.25A.25.25,0,0,1,467,162.71Z"/><path d="M471,162.71h2a.25.25,0,1,1,0,.49h-2a.25.25,0,0,1,0-.5Z"/><path d="M475,162.72h2a.24.24,0,0,1,.25.24.25.25,0,0,1-.25.24h-2a.25.25,0,0,1,0-.49Z"/><path d="M479,162.73h2a.23.23,0,0,1,.23.23.23.23,0,0,1-.23.24h-2a.24.24,0,0,1,0-.48Z"/><path d="M483,162.74h2a.24.24,0,0,1,0,.47h-2a.24.24,0,1,1,0-.47Z"/><path d="M487,162.75h2a.23.23,0,1,1,0,.46h-2a.23.23,0,0,1-.23-.23.23.23,0,0,1,.23-.23Z"/><path d="M491,162.76h2a.22.22,0,0,1,.22.22.22.22,0,0,1-.22.23h-2a.22.22,0,0,1-.22-.23.22.22,0,0,1,.22-.22Z"/><path d="M495,162.77h2a.22.22,0,1,1,0,.44h-2a.22.22,0,1,1,0-.44Z"/><path d="M499,162.78h2a.22.22,0,0,1,0,.43h-2a.22.22,0,0,1-.22-.22.21.21,0,0,1,.21-.21Z"/><path d="M282.81,175.06h1s0,0,0,0,0,0,0,0h-1a0,0,0,0,1,0,0S282.79,175.06,282.81,175.06Z"/><path d="M285.81,175.05h2a0,0,0,0,1,0,0,0,0,0,0,1,0,0h-2a0,0,0,0,1,0,0A0,0,0,0,1,285.81,175.05Z"/><path d="M289.81,175h2s0,0,0,0a0,0,0,0,1,0,0h-2s0,0,0,0A0,0,0,0,1,289.81,175Z"/><path d="M293.81,175h2a0,0,0,0,1,0,.08h-2a0,0,0,1,1,0-.08Z"/><path d="M297.81,175h2a0,0,0,0,1,.05,0,0,0,0,0,1-.05.05h-2a0,0,0,0,1,0,0A0,0,0,0,1,297.81,175Z"/><path d="M301.81,175h2a.05.05,0,0,1,0,.1h-2a0,0,0,0,1,0-.05S301.79,175,301.81,175Z"/><path d="M305.82,175h2a.06.06,0,0,1,.05.06,0,0,0,0,1-.05.05h-2a.05.05,0,1,1,0-.1Z"/><path d="M309.82,175h2a.06.06,0,0,1,0,.12h-2a.06.06,0,0,1-.06-.06A.06.06,0,0,1,309.82,175Z"/><path d="M313.82,175h2a.07.07,0,0,1,.07.07.07.07,0,0,1-.07.06h-2a.06.06,0,0,1,0-.12Z"/><path d="M317.82,175h2a.07.07,0,0,1,0,.14h-2a.06.06,0,0,1-.06-.06A.07.07,0,0,1,317.82,175Z"/><path d="M321.83,175h2a.07.07,0,0,1,0,.14h-2a.07.07,0,1,1,0-.14Z"/><path d="M325.83,175h2a.08.08,0,0,1,.08.07.08.08,0,0,1-.08.08h-2a.08.08,0,0,1-.08-.07A.08.08,0,0,1,325.83,175Z"/><path d="M329.83,175h2a.08.08,0,1,1,0,.16h-2a.07.07,0,0,1-.08-.08A.08.08,0,0,1,329.83,175Z"/><path d="M333.83,174.94h2a.09.09,0,0,1,.09.09.09.09,0,0,1-.09.08h-2a.07.07,0,0,1-.08-.08A.08.08,0,0,1,333.83,174.94Z"/><path d="M337.83,174.93h2a.09.09,0,1,1,0,.18h-2a.09.09,0,0,1,0-.18Z"/><path d="M341.84,174.92h2a.09.09,0,0,1,.09.1.1.1,0,0,1-.09.1h-2a.09.09,0,0,1-.1-.09A.1.1,0,0,1,341.84,174.92Z"/><path d="M345.84,174.92h2a.11.11,0,0,1,.1.1.11.11,0,0,1-.1.11h-2a.1.1,0,0,1-.1-.1A.09.09,0,0,1,345.84,174.92Z"/><path d="M349.84,174.91h2a.11.11,0,1,1,0,.22h-2a.11.11,0,0,1-.11-.11A.1.1,0,0,1,349.84,174.91Z"/><path d="M353.84,174.9h2a.11.11,0,0,1,.11.11.11.11,0,0,1-.11.12h-2a.11.11,0,0,1,0-.22Z"/><path d="M357.84,174.89h2a.12.12,0,0,1,0,.24h-2a.11.11,0,0,1-.11-.12A.11.11,0,0,1,357.84,174.89Z"/><path d="M361.85,174.88h2a.12.12,0,0,1,.12.12.13.13,0,0,1-.12.12h-2a.12.12,0,0,1-.12-.12A.12.12,0,0,1,361.85,174.88Z"/><path d="M365.85,174.87h2a.12.12,0,0,1,.12.12.12.12,0,0,1-.12.13h-2a.13.13,0,0,1-.13-.13A.13.13,0,0,1,365.85,174.87Z"/><path d="M369.85,174.86h2a.13.13,0,0,1,0,.26h-2a.13.13,0,0,1,0-.26Z"/><path d="M373.85,174.85h2a.13.13,0,0,1,.14.13.14.14,0,0,1-.14.14h-2a.13.13,0,0,1-.13-.13A.13.13,0,0,1,373.85,174.85Z"/><path d="M377.85,174.84h2a.14.14,0,0,1,0,.28h-2a.13.13,0,0,1-.13-.14A.14.14,0,0,1,377.85,174.84Z"/><path d="M381.86,174.83h2a.15.15,0,0,1,.14.15.14.14,0,0,1-.14.14h-2a.15.15,0,0,1-.15-.14A.15.15,0,0,1,381.86,174.83Z"/><path d="M385.86,174.83h2a.15.15,0,1,1,0,.3h-2a.15.15,0,0,1-.15-.15A.15.15,0,0,1,385.86,174.83Z"/><path d="M389.86,174.82h2a.16.16,0,0,1,.16.16.16.16,0,0,1-.16.15h-2a.15.15,0,1,1,0-.3Z"/><path d="M393.86,174.81h2a.16.16,0,1,1,0,.32h-2a.16.16,0,0,1-.16-.16A.16.16,0,0,1,393.86,174.81Z"/><path d="M397.86,174.8h2a.18.18,0,0,1,.17.17.16.16,0,0,1-.17.16h-2a.16.16,0,1,1,0-.32Z"/><path d="M401.87,174.79h2a.17.17,0,0,1,.17.16.17.17,0,0,1-.17.17h-2a.16.16,0,0,1-.17-.16A.16.16,0,0,1,401.87,174.79Z"/><path d="M405.87,174.78h2a.17.17,0,1,1,0,.34h-2a.16.16,0,0,1-.17-.17A.17.17,0,0,1,405.87,174.78Z"/><path d="M409.87,174.77h2a.18.18,0,0,1,.18.18.18.18,0,0,1-.18.17h-2a.17.17,0,0,1-.18-.17A.18.18,0,0,1,409.87,174.77Z"/><path d="M413.87,174.76h2a.18.18,0,1,1,0,.36h-2a.18.18,0,1,1,0-.36Z"/><path d="M417.87,174.75h2a.18.18,0,0,1,.19.19.19.19,0,0,1-.18.19h-2a.18.18,0,0,1-.18-.18A.19.19,0,0,1,417.87,174.75Z"/><path d="M421.88,174.75h2a.2.2,0,0,1,.19.19.2.2,0,0,1-.19.2h-2a.19.19,0,0,1-.19-.19A.18.18,0,0,1,421.88,174.75Z"/><path d="M425.88,174.74h2a.2.2,0,0,1,0,.4h-2a.2.2,0,0,1-.2-.2A.19.19,0,0,1,425.88,174.74Z"/><path d="M429.88,174.73h2a.2.2,0,0,1,.2.2.2.2,0,0,1-.2.21h-2a.2.2,0,1,1,0-.4Z"/><path d="M433.88,174.72h2a.21.21,0,0,1,0,.42h-2a.2.2,0,0,1-.2-.21A.2.2,0,0,1,433.88,174.72Z"/><path d="M437.88,174.71h2a.22.22,0,0,1,.22.22.22.22,0,0,1-.21.21h-2a.22.22,0,0,1-.21-.21A.21.21,0,0,1,437.88,174.71Z"/><path d="M441.89,174.7h2a.21.21,0,0,1,.21.21.21.21,0,0,1-.21.22h-2a.22.22,0,1,1,0-.43Z"/><path d="M445.89,174.69h2a.22.22,0,1,1,0,.44h-2a.22.22,0,1,1,0-.44Z"/><path d="M449.89,174.68h2a.23.23,0,1,1,0,.45h-2a.22.22,0,0,1-.22-.22A.22.22,0,0,1,449.89,174.68Z"/><path d="M453.89,174.67h2a.23.23,0,1,1,0,.46h-2a.23.23,0,0,1-.23-.23A.24.24,0,0,1,453.89,174.67Z"/><path d="M457.89,174.66h2a.24.24,0,1,1,0,.47h-2a.23.23,0,0,1-.23-.23A.23.23,0,0,1,457.89,174.66Z"/><path d="M461.9,174.66h2a.24.24,0,1,1,0,.48h-2a.24.24,0,0,1-.24-.24A.23.23,0,0,1,461.9,174.66Z"/><path d="M465.9,174.65h2a.25.25,0,0,1,0,.49h-2a.25.25,0,0,1-.25-.24A.24.24,0,0,1,465.9,174.65Z"/><path d="M469.9,174.64h2a.25.25,0,0,1,0,.5h-2a.25.25,0,1,1,0-.49Z"/><path d="M473.9,174.64h2a.25.25,0,1,1,0,.49h-2a.25.25,0,1,1,0-.49Z"/><path d="M477.9,174.64h2a.24.24,0,1,1,0,.48h-2a.25.25,0,0,1,0-.49Z"/><path d="M481.91,174.65h2a.23.23,0,0,1,.23.23.23.23,0,0,1-.23.24h-2a.24.24,0,0,1,0-.48Z"/><path d="M485.91,174.66h2a.23.23,0,0,1,0,.46h-2a.23.23,0,0,1-.24-.23.24.24,0,0,1,.24-.24Z"/><path d="M489.91,174.67h2a.23.23,0,1,1,0,.45h-2a.23.23,0,0,1,0-.46Z"/><path d="M493.91,174.68h2a.22.22,0,0,1,.22.23.22.22,0,0,1-.22.22h-2a.22.22,0,0,1-.22-.22.22.22,0,0,1,.22-.23Z"/><path d="M497.91,174.69h2a.22.22,0,0,1,0,.44h-2a.22.22,0,0,1,0-.44Z"/><path d="M279.92,186.37h1s0,0,0,0l0,0h-1s0,0,0,0A0,0,0,0,1,279.92,186.37Z"/><path d="M282.92,186.37h2a0,0,0,0,1,0,0s0,0,0,0h-2s0,0,0,0A0,0,0,0,1,282.92,186.37Z"/><path d="M286.92,186.36h2a0,0,0,1,1,0,.08h-2s0,0,0,0A0,0,0,0,1,286.92,186.36Z"/><path d="M290.92,186.35h2a0,0,0,0,1,0,0,0,0,0,0,1,0,0h-2a0,0,0,1,1,0-.08Z"/><path d="M294.92,186.34h2a0,0,0,0,1,.05,0,0,0,0,0,1-.05.05h-2a0,0,0,0,1,0-.05A0,0,0,0,1,294.92,186.34Z"/><path d="M298.93,186.33h2a.05.05,0,0,1,.05,0,.06.06,0,0,1-.05.05h-2a.05.05,0,1,1,0-.1Z"/><path d="M302.93,186.32h2a0,0,0,0,1,.05.05.06.06,0,0,1-.05.06h-2a.06.06,0,1,1,0-.11Z"/><path d="M306.93,186.31h2a.06.06,0,1,1,0,.12h-2a.06.06,0,1,1,0-.12Z"/><path d="M310.93,186.3h2a.07.07,0,0,1,.07.06.07.07,0,0,1-.07.07h-2a.06.06,0,0,1-.06-.06A.07.07,0,0,1,310.93,186.3Z"/><path d="M314.93,186.3h2a.07.07,0,0,1,0,.14h-2a.07.07,0,0,1-.06-.07A.06.06,0,0,1,314.93,186.3Z"/><path d="M318.94,186.29h2a.08.08,0,0,1,.07.08.07.07,0,0,1-.07.07h-2a.07.07,0,1,1,0-.14Z"/><path d="M322.94,186.28h2a.09.09,0,0,1,.08.08.08.08,0,0,1-.08.08h-2a.08.08,0,0,1-.08-.08A.08.08,0,0,1,322.94,186.28Z"/><path d="M326.94,186.27h2a.08.08,0,0,1,.08.09.08.08,0,0,1-.08.08h-2a.08.08,0,1,1,0-.16Z"/><path d="M330.94,186.26h2a.08.08,0,0,1,.09.08.09.09,0,0,1-.09.09h-2a.08.08,0,0,1-.08-.08A.08.08,0,0,1,330.94,186.26Z"/><path d="M334.94,186.25h2a.09.09,0,1,1,0,.18h-2a.09.09,0,0,1,0-.18Z"/><path d="M339,186.24h2a.09.09,0,0,1,.09.09.09.09,0,0,1-.09.1h-2a.09.09,0,0,1-.1-.09A.09.09,0,0,1,339,186.24Z"/><path d="M343,186.23h2a.1.1,0,0,1,.1.1.09.09,0,0,1-.1.1h-2a.09.09,0,0,1-.1-.1A.1.1,0,0,1,343,186.23Z"/><path d="M347,186.22h2a.11.11,0,0,1,.11.11.1.1,0,0,1-.11.1h-2a.1.1,0,0,1-.11-.1A.11.11,0,0,1,347,186.22Z"/><path d="M351,186.22h2a.11.11,0,1,1,0,.22h-2a.11.11,0,0,1-.11-.11A.1.1,0,0,1,351,186.22Z"/><path d="M355,186.21h2a.12.12,0,0,1,.12.12.11.11,0,0,1-.12.11h-2a.11.11,0,0,1,0-.22Z"/><path d="M359,186.2h2a.13.13,0,0,1,.12.12.13.13,0,0,1-.12.13h-2a.11.11,0,0,1-.12-.11A.12.12,0,0,1,359,186.2Z"/><path d="M363,186.19h2a.13.13,0,0,1,0,.26h-2a.13.13,0,0,1-.13-.13A.12.12,0,0,1,363,186.19Z"/><path d="M367,186.18h2a.13.13,0,0,1,.13.14.13.13,0,0,1-.13.13h-2a.13.13,0,0,1,0-.26Z"/><path d="M371,186.17h2a.13.13,0,0,1,.14.13.14.14,0,0,1-.14.14h-2a.13.13,0,0,1-.13-.14A.13.13,0,0,1,371,186.17Z"/><path d="M375,186.16h2a.14.14,0,0,1,.14.14.14.14,0,0,1-.14.14h-2a.14.14,0,0,1,0-.28Z"/><path d="M379,186.15h2a.14.14,0,0,1,.14.14.15.15,0,0,1-.14.15h-2a.15.15,0,1,1,0-.29Z"/><path d="M383,186.14h2a.15.15,0,1,1,0,.3h-2a.15.15,0,1,1,0-.3Z"/><path d="M387,186.13h2a.16.16,0,0,1,.16.15.16.16,0,0,1-.16.16h-2a.15.15,0,0,1-.15-.15A.16.16,0,0,1,387,186.13Z"/><path d="M391,186.13h2a.16.16,0,1,1,0,.32h-2a.16.16,0,0,1-.16-.16A.16.16,0,0,1,391,186.13Z"/><path d="M395,186.12h2a.17.17,0,0,1,.17.17.16.16,0,0,1-.17.16h-2a.16.16,0,1,1,0-.32Z"/><path d="M399,186.11h2a.17.17,0,1,1,0,.34h-2a.16.16,0,0,1-.17-.17A.16.16,0,0,1,399,186.11Z"/><path d="M403,186.1h2a.18.18,0,0,1,.17.18.18.18,0,0,1-.17.17h-2a.17.17,0,0,1,0-.34Z"/><path d="M407,186.09h2a.18.18,0,1,1,0,.36h-2a.18.18,0,0,1-.18-.17A.18.18,0,0,1,407,186.09Z"/><path d="M411,186.08h2a.18.18,0,1,1,0,.36h-2a.18.18,0,1,1,0-.36Z"/><path d="M415,186.07h2a.19.19,0,0,1,0,.37h-2a.18.18,0,0,1-.18-.18A.18.18,0,0,1,415,186.07Z"/><path d="M419,186.06h2a.19.19,0,0,1,0,.38h-2a.18.18,0,0,1-.19-.19A.19.19,0,0,1,419,186.06Z"/><path d="M423,186.05h2a.2.2,0,1,1,0,.39h-2a.19.19,0,0,1-.2-.19A.2.2,0,0,1,423,186.05Z"/><path d="M427,186h2a.2.2,0,0,1,0,.4h-2a.2.2,0,0,1,0-.4Z"/><path d="M431,186h2a.21.21,0,0,1,.21.21.2.2,0,0,1-.21.2h-2a.2.2,0,0,1,0-.4Z"/><path d="M435,186h2a.22.22,0,0,1,.22.21.23.23,0,0,1-.21.22h-2a.21.21,0,1,1,0-.41Z"/><path d="M439,186h2a.22.22,0,0,1,0,.44h-2a.22.22,0,0,1-.22-.22A.21.21,0,0,1,439,186Z"/><path d="M443,186h2a.22.22,0,0,1,.22.22.22.22,0,0,1-.22.23h-2a.22.22,0,0,1,0-.44Z"/><path d="M447,186h2a.22.22,0,0,1,.23.22.23.23,0,0,1-.23.23h-2a.22.22,0,0,1-.22-.23A.22.22,0,0,1,447,186Z"/><path d="M451,186h2a.23.23,0,0,1,.23.23.23.23,0,0,1-.23.23h-2a.24.24,0,0,1-.23-.23A.23.23,0,0,1,451,186Z"/><path d="M455,186h2a.24.24,0,1,1,0,.47h-2a.24.24,0,0,1,0-.47Z"/><path d="M459,186h2a.24.24,0,1,1,0,.48h-2a.24.24,0,0,1,0-.48Z"/><path d="M463,186h2a.25.25,0,0,1,0,.49h-2a.24.24,0,0,1-.24-.24A.24.24,0,0,1,463,186Z"/><path d="M467,186h2a.25.25,0,0,1,0,.5h-2a.25.25,0,0,1-.25-.25A.25.25,0,0,1,467,186Z"/><path d="M471,186h2a.25.25,0,1,1,0,.49h-2a.25.25,0,0,1,0-.5Z"/><path d="M475,186h2a.24.24,0,0,1,.25.24.25.25,0,0,1-.25.24h-2a.25.25,0,0,1,0-.49Z"/><path d="M479,186h2a.23.23,0,0,1,.23.23.23.23,0,0,1-.23.24h-2a.24.24,0,0,1,0-.48Z"/><path d="M483,186h2a.24.24,0,0,1,0,.47h-2a.24.24,0,1,1,0-.47Z"/><path d="M487,186h2a.23.23,0,1,1,0,.46h-2a.23.23,0,1,1,0-.46Z"/><path d="M491,186h2a.22.22,0,0,1,.22.22.22.22,0,0,1-.22.23h-2a.22.22,0,0,1-.22-.23A.22.22,0,0,1,491,186Z"/><path d="M495,186h2a.22.22,0,1,1,0,.44h-2a.22.22,0,1,1,0-.44Z"/><path d="M499,186h2a.22.22,0,0,1,0,.43h-2a.22.22,0,0,1-.22-.22A.21.21,0,0,1,499,186Z"/><path d="M272.69,197.69h1a0,0,0,0,1,0,0s0,0,0,0h-1l0,0S272.68,197.69,272.69,197.69Z"/><path d="M275.69,197.69h2a0,0,0,0,1,0,.06h-2a0,0,0,0,1,0,0S275.68,197.69,275.69,197.69Z"/><path d="M279.69,197.68h2a0,0,0,0,1,0,0,0,0,0,0,1,0,0h-2a0,0,0,0,1,0-.06Z"/><path d="M283.7,197.67h2a0,0,0,0,1,0,0,0,0,0,0,1,0,0h-2s0,0,0,0A0,0,0,0,1,283.7,197.67Z"/><path d="M287.7,197.66h2a0,0,0,0,1,0,0,0,0,0,0,1,0,0h-2a0,0,0,0,1,0-.08Z"/><path d="M291.7,197.65h2a.05.05,0,0,1,.05.05,0,0,0,0,1-.05.05h-2a0,0,0,0,1-.05,0A0,0,0,0,1,291.7,197.65Z"/><path d="M295.7,197.64h2a.06.06,0,0,1,.06.05.06.06,0,0,1-.06.06h-2a.05.05,0,0,1,0-.1Z"/><path d="M299.7,197.63h2s.05,0,.05.06a.06.06,0,0,1-.05.06h-2a.06.06,0,0,1,0-.12Z"/><path d="M303.71,197.62h2a.06.06,0,0,1,.06.06.07.07,0,0,1-.06.07h-2a.07.07,0,0,1-.07-.07A.07.07,0,0,1,303.71,197.62Z"/><path d="M307.71,197.61h2a.07.07,0,0,1,0,.14h-2a.07.07,0,0,1,0-.14Z"/><path d="M311.71,197.6h2a.08.08,0,0,1,.08.07.09.09,0,0,1-.08.08h-2a.07.07,0,0,1-.07-.07A.08.08,0,0,1,311.71,197.6Z"/><path d="M315.71,197.6h2a.08.08,0,1,1,0,.16h-2a.08.08,0,0,1-.07-.08A.07.07,0,0,1,315.71,197.6Z"/><path d="M319.71,197.59h2a.09.09,0,0,1,.08.08.09.09,0,0,1-.08.09h-2a.09.09,0,0,1-.08-.08A.08.08,0,0,1,319.71,197.59Z"/><path d="M323.72,197.58h2a.09.09,0,1,1,0,.18h-2a.09.09,0,0,1-.09-.09A.09.09,0,0,1,323.72,197.58Z"/><path d="M327.72,197.57h2a.1.1,0,0,1,.09.1.09.09,0,0,1-.09.09h-2a.09.09,0,1,1,0-.18Z"/><path d="M331.72,197.56h2a.1.1,0,0,1,.1.1.09.09,0,0,1-.1.1h-2a.09.09,0,0,1-.09-.1A.09.09,0,0,1,331.72,197.56Z"/><path d="M335.72,197.55h2a.1.1,0,0,1,.11.1.11.11,0,0,1-.11.1h-2a.1.1,0,0,1-.1-.1A.11.11,0,0,1,335.72,197.55Z"/><path d="M339.72,197.54h2a.1.1,0,0,1,.1.1.11.11,0,0,1-.1.11h-2a.11.11,0,0,1-.1-.1A.11.11,0,0,1,339.72,197.54Z"/><path d="M343.73,197.53h2a.11.11,0,0,1,0,.22h-2a.11.11,0,0,1,0-.22Z"/><path d="M347.73,197.52h2a.12.12,0,0,1,.12.12.12.12,0,0,1-.12.11h-2a.12.12,0,0,1-.12-.11A.12.12,0,0,1,347.73,197.52Z"/><path d="M351.73,197.51h2a.12.12,0,0,1,0,.24h-2a.12.12,0,0,1-.12-.12A.12.12,0,0,1,351.73,197.51Z"/><path d="M355.73,197.51h2a.13.13,0,0,1,.13.13.12.12,0,0,1-.13.12h-2a.12.12,0,0,1,0-.24Z"/><path d="M359.73,197.5h2a.13.13,0,0,1,0,.26h-2a.12.12,0,0,1-.12-.13A.12.12,0,0,1,359.73,197.5Z"/><path d="M363.74,197.49h2a.13.13,0,0,1,.13.14.13.13,0,0,1-.13.13h-2a.13.13,0,1,1,0-.26Z"/><path d="M367.74,197.48h2a.14.14,0,0,1,.14.14.14.14,0,0,1-.14.14h-2a.13.13,0,0,1-.14-.13A.14.14,0,0,1,367.74,197.48Z"/><path d="M371.74,197.47h2a.14.14,0,0,1,.15.14.16.16,0,0,1-.15.15h-2a.14.14,0,1,1,0-.28Z"/><path d="M375.74,197.46h2a.14.14,0,0,1,.15.15.15.15,0,0,1-.15.15h-2a.15.15,0,0,1-.15-.15A.16.16,0,0,1,375.74,197.46Z"/><path d="M379.74,197.45h2a.15.15,0,0,1,.15.15.16.16,0,0,1-.15.16h-2a.16.16,0,0,1-.15-.16A.15.15,0,0,1,379.74,197.45Z"/><path d="M383.75,197.44h2a.16.16,0,0,1,0,.32h-2a.16.16,0,1,1,0-.32Z"/><path d="M387.75,197.43h2a.16.16,0,0,1,.16.16.17.17,0,0,1-.16.17h-2a.16.16,0,0,1-.16-.16A.17.17,0,0,1,387.75,197.43Z"/><path d="M391.75,197.42h2a.18.18,0,0,1,.17.17.17.17,0,0,1-.17.17h-2a.17.17,0,0,1,0-.34Z"/><path d="M395.75,197.42h2a.18.18,0,0,1,.18.17.18.18,0,0,1-.18.18h-2a.18.18,0,0,1-.17-.17A.17.17,0,0,1,395.75,197.42Z"/><path d="M399.75,197.41h2a.18.18,0,0,1,0,.36h-2a.18.18,0,0,1-.17-.18A.18.18,0,0,1,399.75,197.41Z"/><path d="M403.76,197.4h2a.18.18,0,0,1,.18.19.18.18,0,0,1-.18.18h-2a.18.18,0,0,1,0-.36Z"/><path d="M407.76,197.39h2a.2.2,0,0,1,.19.19.19.19,0,0,1-.19.19h-2a.19.19,0,1,1,0-.37Z"/><path d="M411.76,197.38h2a.18.18,0,0,1,.19.19.19.19,0,0,1-.19.19h-2a.19.19,0,0,1-.19-.19A.2.2,0,0,1,411.76,197.38Z"/><path d="M415.76,197.37h2a.19.19,0,0,1,.2.19.2.2,0,0,1-.2.2h-2a.19.19,0,0,1-.19-.19A.19.19,0,0,1,415.76,197.37Z"/><path d="M419.76,197.36h2a.2.2,0,0,1,0,.4h-2a.2.2,0,1,1,0-.4Z"/><path d="M423.77,197.35h2a.2.2,0,0,1,.2.2.2.2,0,0,1-.2.21h-2a.2.2,0,0,1-.21-.2A.21.21,0,0,1,423.77,197.35Z"/><path d="M427.77,197.34h2a.21.21,0,1,1,0,.42h-2a.21.21,0,0,1-.21-.21A.21.21,0,0,1,427.77,197.34Z"/><path d="M431.77,197.34h2a.22.22,0,0,1,.22.22.21.21,0,0,1-.22.21h-2a.21.21,0,0,1,0-.42Z"/><path d="M435.77,197.33h2a.22.22,0,0,1,.22.22.21.21,0,0,1-.22.22h-2a.22.22,0,1,1,0-.43Z"/><path d="M439.77,197.32h2a.22.22,0,0,1,.22.23.22.22,0,0,1-.22.22h-2a.22.22,0,1,1,0-.44Z"/><path d="M443.78,197.31h2a.24.24,0,0,1,.23.23.23.23,0,0,1-.23.23h-2a.23.23,0,1,1,0-.45Z"/><path d="M447.78,197.3h2a.24.24,0,0,1,.24.24.25.25,0,0,1-.24.24h-2a.23.23,0,1,1,0-.46Z"/><path d="M451.78,197.29h2a.24.24,0,0,1,0,.48h-2a.24.24,0,1,1,0-.48Z"/><path d="M455.78,197.28h2a.25.25,0,1,1,0,.49h-2a.25.25,0,0,1,0-.49Z"/><path d="M459.78,197.27h2a.25.25,0,0,1,.25.25.26.26,0,0,1-.25.25h-2a.25.25,0,0,1,0-.5Z"/><path d="M463.79,197.27h2a.25.25,0,0,1,0,.5h-2a.25.25,0,0,1,0-.5Z"/><path d="M467.79,197.28h2a.25.25,0,0,1,0,.49h-2a.25.25,0,1,1,0-.49Z"/><path d="M471.79,197.29h2a.24.24,0,0,1,0,.48h-2a.24.24,0,0,1,0-.48Z"/><path d="M475.79,197.3h2a.24.24,0,0,1,.24.23.23.23,0,0,1-.24.23h-2a.23.23,0,0,1-.23-.24.23.23,0,0,1,.23-.23Z"/><path d="M479.79,197.31h2a.22.22,0,0,1,.22.23.22.22,0,0,1-.22.22h-2a.24.24,0,0,1-.23-.22.23.23,0,0,1,.23-.23Z"/><path d="M483.8,197.32h2a.22.22,0,0,1,0,.44h-2a.22.22,0,1,1,0-.44Z"/><path d="M487.8,197.32h2a.22.22,0,0,1,.22.22.21.21,0,0,1-.22.21h-2a.22.22,0,0,1-.22-.22.22.22,0,0,1,.22-.22Z"/><path d="M491.8,197.33h2a.21.21,0,0,1,0,.42h-2a.21.21,0,0,1-.21-.21.21.21,0,0,1,.21-.22Z"/><path d="M495.8,197.34h2a.2.2,0,0,1,.21.2.21.21,0,0,1-.21.21h-2a.21.21,0,0,1-.21-.21.22.22,0,0,1,.21-.21Z"/><path d="M499.8,197.35h2a.2.2,0,0,1,0,.4h-2a.2.2,0,0,1-.2-.2.2.2,0,0,1,.2-.21Z"/><path d="M270.76,209h1s0,0,0,0a0,0,0,0,1,0,0h-1s0,0,0,0Z"/><path d="M273.77,209h2a0,0,0,0,1,0,.06h-2a0,0,0,0,1,0,0A0,0,0,0,1,273.77,209Z"/><path d="M277.77,209h2a0,0,0,0,1,0,0s0,0,0,0h-2s0,0,0,0A0,0,0,0,1,277.77,209Z"/><path d="M281.77,209h2a0,0,0,0,1,0,.08h-2a0,0,0,0,1,0-.08Z"/><path d="M285.77,209h2a0,0,0,0,1,.05.05,0,0,0,0,1-.05,0h-2a0,0,0,0,1,0,0A0,0,0,0,1,285.77,209Z"/><path d="M289.77,209h2a.05.05,0,0,1,0,.1h-2a0,0,0,0,1,0-.05A0,0,0,0,1,289.77,209Z"/><path d="M293.78,209h2a.06.06,0,0,1,.05.06,0,0,0,0,1-.05.05h-2a.05.05,0,1,1,0-.1Z"/><path d="M297.78,209h2a.06.06,0,0,1,.06.06.06.06,0,0,1-.06.06h-2a.06.06,0,0,1-.06-.05A.06.06,0,0,1,297.78,209Z"/><path d="M301.78,208.94h2a.05.05,0,0,1,.06.06.06.06,0,0,1-.06.06h-2a.06.06,0,0,1-.06-.06A.06.06,0,0,1,301.78,208.94Z"/><path d="M305.78,208.93h2a.07.07,0,0,1,.07.06.07.07,0,0,1-.07.07h-2a.07.07,0,0,1-.07-.06A.07.07,0,0,1,305.78,208.93Z"/><path d="M309.78,208.92h2a.07.07,0,1,1,0,.14h-2a.07.07,0,0,1,0-.14Z"/><path d="M313.79,208.91h2a.08.08,0,0,1,.08.08.09.09,0,0,1-.08.08h-2a.07.07,0,0,1-.08-.07A.08.08,0,0,1,313.79,208.91Z"/><path d="M317.79,208.9h2a.09.09,0,0,1,.08.08.09.09,0,0,1-.08.09h-2a.08.08,0,0,1-.08-.09A.08.08,0,0,1,317.79,208.9Z"/><path d="M321.79,208.89h2a.09.09,0,1,1,0,.18h-2a.09.09,0,1,1,0-.18Z"/><path d="M325.79,208.89h2a.1.1,0,0,1,.1.09.11.11,0,0,1-.1.1h-2a.09.09,0,1,1,0-.18Z"/><path d="M329.79,208.88h2a.1.1,0,0,1,.1.1.1.1,0,0,1-.09.1h-2a.1.1,0,0,1-.09-.1A.09.09,0,0,1,329.79,208.88Z"/><path d="M333.8,208.87h2a.11.11,0,0,1,.1.11.11.11,0,0,1-.1.1h-2a.1.1,0,0,1-.1-.1A.09.09,0,0,1,333.8,208.87Z"/><path d="M337.8,208.86h2a.11.11,0,1,1,0,.22h-2a.11.11,0,0,1-.11-.11A.11.11,0,0,1,337.8,208.86Z"/><path d="M341.8,208.85h2a.11.11,0,1,1,0,.22h-2a.11.11,0,0,1,0-.22Z"/><path d="M345.8,208.84h2a.11.11,0,0,1,.12.11.12.12,0,0,1-.12.12h-2a.11.11,0,0,1-.11-.12A.11.11,0,0,1,345.8,208.84Z"/><path d="M349.8,208.83h2a.12.12,0,0,1,.13.12.12.12,0,0,1-.12.12h-2a.12.12,0,0,1-.12-.12A.13.13,0,0,1,349.8,208.83Z"/><path d="M353.81,208.82h2a.12.12,0,0,1,.12.12.12.12,0,0,1-.12.13h-2a.13.13,0,0,1-.13-.12A.13.13,0,0,1,353.81,208.82Z"/><path d="M357.81,208.81h2a.13.13,0,0,1,0,.26h-2a.13.13,0,0,1,0-.26Z"/><path d="M361.81,208.8h2a.14.14,0,0,1,.14.14.13.13,0,0,1-.14.13h-2a.13.13,0,0,1-.13-.13A.13.13,0,0,1,361.81,208.8Z"/><path d="M365.81,208.8h2a.14.14,0,1,1,0,.28h-2a.14.14,0,0,1-.14-.14A.14.14,0,0,1,365.81,208.8Z"/><path d="M369.81,208.79h2a.15.15,0,0,1,.15.15.14.14,0,0,1-.14.14h-2a.14.14,0,1,1,0-.28Z"/><path d="M373.82,208.78h2a.15.15,0,0,1,.15.15.15.15,0,0,1-.15.15h-2a.14.14,0,0,1-.15-.14A.14.14,0,0,1,373.82,208.78Z"/><path d="M377.82,208.77h2a.16.16,0,0,1,.15.16.15.15,0,0,1-.15.15h-2a.14.14,0,0,1-.15-.15A.15.15,0,0,1,377.82,208.77Z"/><path d="M381.82,208.76h2a.16.16,0,0,1,.16.15.16.16,0,0,1-.16.16h-2a.16.16,0,0,1-.16-.15A.16.16,0,0,1,381.82,208.76Z"/><path d="M385.82,208.75h2a.16.16,0,1,1,0,.32h-2a.16.16,0,0,1,0-.32Z"/><path d="M389.82,208.74h2a.16.16,0,0,1,.17.17.17.17,0,0,1-.16.17h-2a.16.16,0,0,1-.16-.16A.17.17,0,0,1,389.82,208.74Z"/><path d="M393.83,208.73h2a.18.18,0,0,1,.17.17.18.18,0,0,1-.17.18h-2a.18.18,0,0,1-.18-.18A.18.18,0,0,1,393.83,208.73Z"/><path d="M397.83,208.72h2a.18.18,0,0,1,0,.36h-2a.18.18,0,0,1,0-.36Z"/><path d="M401.83,208.72h2a.18.18,0,0,1,.18.18.19.19,0,0,1-.18.19h-2a.18.18,0,0,1,0-.36Z"/><path d="M405.83,208.71h2a.19.19,0,0,1,0,.38h-2a.19.19,0,0,1-.18-.19A.18.18,0,0,1,405.83,208.71Z"/><path d="M409.83,208.7h2a.2.2,0,1,1,0,.39h-2a.2.2,0,0,1-.19-.19A.19.19,0,0,1,409.83,208.7Z"/><path d="M413.84,208.69h2a.2.2,0,0,1,0,.4h-2a.2.2,0,1,1,0-.39Z"/><path d="M417.84,208.68h2a.2.2,0,0,1,.2.21.2.2,0,0,1-.2.2h-2a.2.2,0,1,1,0-.4Z"/><path d="M421.84,208.67h2a.21.21,0,0,1,.21.2.21.21,0,0,1-.21.21h-2a.2.2,0,0,1-.2-.21A.2.2,0,0,1,421.84,208.67Z"/><path d="M425.84,208.66h2a.21.21,0,1,1,0,.42h-2a.21.21,0,1,1,0-.42Z"/><path d="M429.84,208.65h2a.22.22,0,1,1,0,.43h-2a.22.22,0,0,1,0-.43Z"/><path d="M433.85,208.64h2a.22.22,0,0,1,0,.44h-2a.22.22,0,0,1,0-.44Z"/><path d="M437.85,208.63h2a.24.24,0,0,1,.23.23.23.23,0,0,1-.23.22h-2a.23.23,0,1,1,0-.45Z"/><path d="M441.85,208.63h2a.23.23,0,0,1,0,.46h-2a.23.23,0,1,1,0-.45Z"/><path d="M445.85,208.62h2a.24.24,0,0,1,.24.24.23.23,0,0,1-.24.23h-2a.23.23,0,0,1,0-.46Z"/><path d="M449.85,208.61h2a.25.25,0,0,1,.25.24.24.24,0,0,1-.24.24h-2a.23.23,0,0,1-.23-.23A.23.23,0,0,1,449.85,208.61Z"/><path d="M453.86,208.6h2a.25.25,0,0,1,0,.49h-2a.24.24,0,1,1,0-.48Z"/><path d="M457.86,208.59h2a.24.24,0,0,1,.25.24.25.25,0,0,1-.25.25h-2a.25.25,0,1,1,0-.49Z"/><path d="M461.86,208.59h2a.25.25,0,1,1,0,.49h-2a.25.25,0,1,1,0-.49Z"/><path d="M465.86,208.6h2a.24.24,0,0,1,.24.24.23.23,0,0,1-.24.24h-2a.24.24,0,0,1-.24-.24.24.24,0,0,1,.24-.24Z"/><path d="M469.86,208.61h2a.24.24,0,0,1,.24.24.23.23,0,0,1-.24.23h-2a.24.24,0,0,1-.24-.24.23.23,0,0,1,.24-.23Z"/><path d="M473.87,208.61h2a.23.23,0,1,1,0,.46h-2a.23.23,0,0,1-.24-.23.24.24,0,0,1,.23-.24Z"/><path d="M477.87,208.62h2a.23.23,0,1,1,0,.45h-2a.23.23,0,0,1-.23-.23.23.23,0,0,1,.23-.23Z"/><path d="M481.87,208.63h2a.22.22,0,0,1,0,.44h-2a.24.24,0,0,1-.23-.22.23.23,0,0,1,.23-.23Z"/><path d="M485.87,208.64h2a.21.21,0,0,1,.22.21.22.22,0,0,1-.22.22h-2a.22.22,0,0,1,0-.44Z"/><path d="M489.87,208.65h2a.22.22,0,1,1,0,.43h-2a.22.22,0,0,1-.21-.21.21.21,0,0,1,.21-.22Z"/><path d="M493.88,208.66h2a.21.21,0,0,1,.2.21.2.2,0,0,1-.2.21h-2a.21.21,0,0,1-.21-.21.2.2,0,0,1,.21-.21Z"/><path d="M497.88,208.67h2a.2.2,0,0,1,.2.21.2.2,0,0,1-.2.2h-2a.21.21,0,0,1-.21-.21.2.2,0,0,1,.21-.2Z"/></g><path id="A-2" data-name="A" class="cls-3" d="M381.79,222.62l44.93-97.24a2.6,2.6,0,0,1,2.46-1.59h1.45a2.45,2.45,0,0,1,2.45,1.59l44.51,97.24a2.56,2.56,0,0,1-2.46,3.76H462.56c-2.17,0-3.18-.87-4.19-2.89l-7.08-15.61H408.08L401,223.49a4.34,4.34,0,0,1-4.19,2.89H384.24A2.55,2.55,0,0,1,381.79,222.62Zm62.42-30.78-14.45-31.79h-.43l-14.17,31.79Z"/><path id="I-5" data-name="I" class="cls-5" d="M349.65,128.17a3.3,3.3,0,0,1,3.38-2.94h16.56a3.31,3.31,0,0,1,3.39,2.94V230.66a3.3,3.3,0,0,1-3.39,2.94H353a3.29,3.29,0,0,1-3.38-2.94Z"/><path id="I-6" data-name="I" class="cls-3" d="M345.38,114.4l-2.61-5.06a2.18,2.18,0,0,1,.87-2.75l23.7-14.16c1.59-1,3-.86,3.75.44l4.05,7.51c1,1.73.43,3.32-.87,3.9L349,115.41C347,116.27,346,115.7,345.38,114.4ZM349.71,128a2.84,2.84,0,0,1,2.75-2.75h13.43a2.84,2.84,0,0,1,2.75,2.75v95.65a2.84,2.84,0,0,1-2.75,2.75H352.46a2.84,2.84,0,0,1-2.75-2.75Z"/><path class="cls-2" d="M301.72,127.07h-48v32h0v32h48c16.26,0,29.56-13.5,29.56-30v-4C331.28,140.57,318,127.07,301.72,127.07Z"/><g class="cls-10"><path d="M251.42,369.94,251,179.85l.42-190.1s0,0,0,0a0,0,0,0,1,0,0V369.94s0,0,0,0A0,0,0,0,1,251.42,369.94Z"/><path d="M262.66,361.94l-.42-190.1.42-190.09s0,0,0,0a0,0,0,0,1,0,0V361.94s0,0,0,0Z"/><path d="M274.22,447l-.42-190.1.42-190.09s0,0,0,0a0,0,0,0,1,0,0V447s0,0,0,0Z"/><path d="M285.18,403.38l-.43-190.1.43-190.09s0,0,0,0a0,0,0,0,1,0,0V403.38s0,0,0,0Z"/><path d="M297.1,400.49l-.42-190.1L297.1,20.3s0,0,0,0a0,0,0,0,1,0,0V400.49s0,0,0,0Z"/><path d="M308.42,403.38,308,213.28l.43-190.09s0,0,0,0a0,0,0,0,1,0,0V403.38s0,0,0,0Z"/><path d="M319.73,410.6l-.42-190.09.42-190.1s0,0,0,0a0,0,0,0,1,0,0V410.6s0,0,0,0A0,0,0,0,1,319.73,410.6Z"/><path d="M331.05,412.53l-.42-190.09.42-190.1s0,0,0,0a0,0,0,0,1,0,0V412.53s0,0,0,0A0,0,0,0,1,331.05,412.53Z"/></g><path id="R-3" data-name="R" class="cls-3" d="M253.48,128a2.74,2.74,0,0,1,2.74-2.75h41.33a31.3,31.3,0,0,1,31.5,31.07c0,13.29-8.82,24.13-21.39,29.19l19.8,36.7a2.74,2.74,0,0,1-2.46,4.19H309.83a2.49,2.49,0,0,1-2.31-1.3L288.3,186.79h-16v36.84a2.84,2.84,0,0,1-2.74,2.75h-13.3a2.74,2.74,0,0,1-2.74-2.75ZM296,171.33c7.66,0,14.3-6.65,14.3-14.74a14.37,14.37,0,0,0-14.3-14H272.41v28.76Z"/><path class="cls-4" d="M139.83,209.11l42.38-91.4a3.7,3.7,0,0,1,6.72,0l42.17,91.4a3.7,3.7,0,0,1-3.36,5.26H143.19A3.71,3.71,0,0,1,139.83,209.11Z"/><path id="A-3" data-name="A" class="cls-3" d="M144.53,222.62l44.93-97.24a2.6,2.6,0,0,1,2.46-1.59h1.44a2.45,2.45,0,0,1,2.46,1.59l44.5,97.24a2.55,2.55,0,0,1-2.45,3.76H225.3c-2.17,0-3.18-.87-4.19-2.89L214,207.88H170.82l-7.08,15.61a4.34,4.34,0,0,1-4.19,2.89H147A2.55,2.55,0,0,1,144.53,222.62ZM207,191.84,192.5,160.05h-.44L177.9,191.84Z"/><path class="cls-7" d="M25.07,221.11,43,126.3c.88-2.86,3.59-2.86,4.46,0l38.17,94.81c.75,2.45-.44,5.26-2.23,5.26H27.3C25.51,226.38,24.32,223.57,25.07,221.11Z"/><path id="M" class="cls-3" d="M42.08,126a2.43,2.43,0,0,1,2.6-2.16H47a2.65,2.65,0,0,1,2.46,1.44l31.79,68.2h.43l31.79-68.2a2.49,2.49,0,0,1,2.45-1.44h2.32a2.44,2.44,0,0,1,2.6,2.16l17,97.1a2.52,2.52,0,0,1-2.6,3.33H122.13a3.15,3.15,0,0,1-2.75-2.17l-8.52-54.76h-.44L85.14,226.23a2.46,2.46,0,0,1-2.46,1.59h-2.6a2.6,2.6,0,0,1-2.46-1.59L52.05,169.45h-.43l-8.39,54.76a2.8,2.8,0,0,1-2.6,2.17h-13a2.66,2.66,0,0,1-2.75-3.33Z"/></svg>